<?xml version="1.0" encoding="UTF-8"?>
<svg version="1.1" xmlns="http://www.w3.org/2000/svg" width="1299" height="603">
<path d="M0 0 C1.97411613 -0.00422974 1.97411613 -0.00422974 3.9881134 -0.00854492 C5.44007887 -0.00660067 6.89204421 -0.0045525 8.3440094 -0.00241089 C9.87866253 -0.00376653 11.41331534 -0.00554738 12.94796753 -0.00772095 C17.11377598 -0.01227934 21.27955965 -0.01051134 25.44536853 -0.00734186 C29.81637306 -0.00480594 34.18737551 -0.00715962 38.55838013 -0.00872803 C45.90815103 -0.01054785 53.25791189 -0.00815011 60.60768127 -0.00338745 C69.0752463 0.00203659 77.54278717 0.00030532 86.0103516 -0.00521386 C93.29808648 -0.00977213 100.58581415 -0.01038177 107.87355 -0.00777519 C112.21780197 -0.00622494 116.56204265 -0.00598365 120.90629387 -0.00931168 C125.00126569 -0.01222929 129.0962069 -0.01014423 133.19117546 -0.00441742 C134.68336435 -0.00310969 136.17555588 -0.00344953 137.66774368 -0.00568008 C169.39045334 -0.0486765 196.43046448 8.39157659 219.39698792 30.90432739 C235.09722152 46.91788028 247.0427159 67.7566953 250.49464417 90.12698364 C250.60421448 90.80116333 250.71378479 91.47534302 250.82667542 92.16995239 C254.56966488 119.5686353 246.70397647 149.00506349 229.99464417 171.06448364 C228.8433827 172.43177129 227.67621941 173.78580565 226.49464417 175.12698364 C225.83077698 175.93264771 225.16690979 176.73831177 224.48292542 177.56838989 C209.71877333 194.93018454 189.07151432 204.18590182 167.49464417 210.12698364 C166.78549866 210.32437134 166.07635315 210.52175903 165.34571838 210.72512817 C148.93027104 214.63219874 130.83932948 213.22868967 114.10401917 213.00588989 C111.93542563 212.98150836 109.76682595 212.95766928 107.59822083 212.93434143 C101.96283303 212.87229767 96.32755801 212.80301699 90.692276 212.73208618 C84.91290813 212.66067028 79.13346196 212.59629586 73.35401917 212.53128052 C62.06747474 212.40329993 50.7810371 212.26765293 39.49464417 212.12698364 C39.50463692 213.99500893 39.50463692 213.99500893 39.51483154 215.90077209 C39.57573469 227.65614084 39.62066104 239.41147743 39.65008068 251.16696835 C39.66571422 257.21010366 39.68691048 263.25311127 39.72096252 269.2961731 C39.75363809 275.1316967 39.77151456 280.96709771 39.77927589 286.80270576 C39.78480467 289.0253651 39.79560096 291.24801799 39.81183434 293.47062492 C39.83371727 296.59181927 39.83660652 299.71251163 39.83522034 302.83377075 C39.84600616 303.74583786 39.85679199 304.65790497 39.86790466 305.59761047 C39.83145714 313.21767991 38.5343662 321.03080513 33.09791565 326.79055786 C25.55977495 333.0740636 17.54056496 333.92660445 8.04493713 333.77883911 C5.99634508 333.75200592 3.95322728 333.77870099 1.90480042 333.81057739 C-6.88130955 333.83357403 -14.32048697 332.67785682 -21.10862732 326.71975708 C-27.6349497 319.54020536 -27.94105922 312.31315285 -27.88630676 303.10173035 C-27.89098673 301.8926624 -27.89566671 300.68359445 -27.9004885 299.43788809 C-27.91036502 296.0941031 -27.90683656 292.75082557 -27.89752984 289.40707171 C-27.89073224 285.79622019 -27.90122414 282.18541248 -27.9094696 278.5745697 C-27.92280197 271.50550714 -27.91993131 264.4365402 -27.91123168 257.36747391 C-27.90445305 251.62113366 -27.90353919 245.87482019 -27.90680313 240.1284771 C-27.90726283 239.31022838 -27.90772253 238.49197967 -27.90819616 237.64893554 C-27.90915535 235.98660012 -27.91012799 234.32426471 -27.91111393 232.6619293 C-27.91966651 217.07772584 -27.90983605 201.49357533 -27.89371283 185.90938055 C-27.88031228 172.54316768 -27.88263583 159.17703299 -27.89646912 145.81082153 C-27.91253159 130.28345259 -27.91883991 114.75613007 -27.90963233 99.22875398 C-27.9086767 97.57227131 -27.90773358 95.91578864 -27.90680313 94.25930595 C-27.9063403 93.44431993 -27.90587748 92.6293339 -27.90540063 91.78965132 C-27.90281255 86.05204301 -27.90717785 80.31446418 -27.91424179 74.57686043 C-27.92266452 67.58191748 -27.92036054 60.5870755 -27.90439956 53.59214408 C-27.89652682 50.02455342 -27.89340807 46.45713096 -27.90334702 42.88954163 C-27.91396573 39.01933993 -27.90126792 35.14941239 -27.88630676 31.27922058 C-27.89299893 30.15557746 -27.89969109 29.03193433 -27.90658605 27.87424141 C-27.8531617 20.75374219 -27.22036789 14.84122531 -22.89207458 8.91995239 C-15.83265477 2.25001781 -9.68170439 0.00319538 0 0 Z M39.49464417 70.12698364 C39.49464417 93.88698364 39.49464417 117.64698364 39.49464417 142.12698364 C60.68159172 142.24722244 60.68159172 142.24722244 81.86858749 142.32799911 C89.44814372 142.35013157 97.02752313 142.37819338 104.60694885 142.42874146 C111.25294186 142.47304303 117.89879404 142.49614261 124.54494095 142.50649261 C127.07659541 142.51386562 129.60823977 142.52826328 132.13981247 142.54990387 C135.69435246 142.57907208 139.24810863 142.58293388 142.80274963 142.58108521 C143.84213181 142.59546631 144.88151398 142.60984741 145.95239258 142.62466431 C156.82040896 142.56377063 164.49648132 139.04172172 172.29542542 131.54885864 C179.65028366 123.44936999 181.87958854 114.46205847 181.36964417 103.68948364 C180.39348997 94.15234498 177.50340257 84.95641347 170.49464417 78.12698364 C161.35847504 71.34658705 153.35376025 69.82311905 142.23512268 69.89993286 C141.12219345 69.89964081 140.00926422 69.89934875 138.86260986 69.89904785 C135.19950957 69.90043648 131.53661499 69.91597593 127.87355042 69.93167114 C125.32764802 69.93540293 122.78174419 69.93824912 120.23583984 69.94024658 C114.22948397 69.94709162 108.22321583 69.96283995 102.21689504 69.98294556 C94.7033724 70.0075472 87.1898377 70.01845311 79.67628479 70.02932739 C66.28234755 70.04877246 52.88857018 70.08884242 39.49464417 70.12698364 Z " fill="#BB2C32" transform="translate(537.5053558349609,76.87301635742188)"/>
<path d="M0 0 C25.7563738 22.79004985 42.57138344 53.13955316 46.78125 87.4609375 C46.87600292 90.22514959 46.92910892 92.96415976 46.92842102 95.72776794 C46.93209771 96.53256421 46.9357744 97.33736047 46.9395625 98.1665445 C46.95052771 100.84858511 46.95443084 103.53058689 46.95825195 106.21264648 C46.96452175 108.1415621 46.971169 110.07047653 46.97816467 111.99938965 C46.99913648 118.31859507 47.00955686 124.63780055 47.01953125 130.95703125 C47.02358061 133.13582942 47.02769759 135.31462746 47.03188133 137.49342537 C47.05091354 147.72576458 47.06515179 157.95809664 47.0734933 168.19045013 C47.08327522 179.99346021 47.10962797 191.79628322 47.14999419 203.59922737 C47.18015079 212.73062977 47.19496153 221.86197849 47.19827431 230.99342972 C47.20062419 236.44419011 47.20957769 241.89475019 47.23473549 247.34545708 C47.25801481 252.47141754 47.26224993 257.59704572 47.25197411 262.72304535 C47.2514787 264.60155658 47.25780058 266.48008418 47.27153015 268.3585453 C47.28925956 270.92846795 47.28213838 273.49719916 47.26899719 276.06712341 C47.28545106 277.17478228 47.28545106 277.17478228 47.30223733 278.30481809 C47.22519959 284.5699067 45.13095557 289.61331813 41.140625 294.44921875 C40.60953125 294.88621094 40.0784375 295.32320313 39.53125 295.7734375 C39.01046875 296.22332031 38.4896875 296.67320312 37.953125 297.13671875 C29.97744519 301.99958827 22.4862857 301.94925503 13.34375 301.8984375 C12.07208984 301.91841797 10.80042969 301.93839844 9.49023438 301.95898438 C0.68387449 301.95441913 -5.88816589 301.03780163 -12.77734375 295.34765625 C-13.39738281 294.62191406 -14.01742188 293.89617187 -14.65625 293.1484375 C-15.29433594 292.43042969 -15.93242188 291.71242188 -16.58984375 290.97265625 C-25.84211201 276.70596922 -20.21875 244.8320099 -20.21875 236.4609375 C-64.43875 236.4609375 -108.65875 236.4609375 -154.21875 236.4609375 C-154.21875 251.9709375 -154.21875 267.4809375 -154.21875 283.4609375 C-158.59712513 292.21768776 -161.13794852 297.11715381 -169.9519043 300.5144043 C-175.58418769 302.14629748 -181.26807864 301.78846761 -187.09375 301.7734375 C-188.95580078 301.79760742 -188.95580078 301.79760742 -190.85546875 301.82226562 C-199.51326588 301.82687574 -207.18977552 301.30125253 -213.84638977 295.04489136 C-221.99470091 285.64025504 -220.86956649 274.7141538 -220.70703125 263.015625 C-220.6976925 261.0345245 -220.69058141 259.05341237 -220.68559265 257.07229614 C-220.6666065 251.88695757 -220.61757874 246.70233203 -220.56207275 241.51727295 C-220.51069851 236.21473838 -220.48803995 230.91208732 -220.46289062 225.609375 C-220.40945125 215.22625119 -220.3242411 204.8436539 -220.21875 194.4609375 C-219.51147766 194.45729187 -218.80420532 194.45364624 -218.07550049 194.44989014 C-211.31206298 194.41155157 -204.54900575 194.35419875 -197.78590775 194.27703476 C-194.31135803 194.23802079 -190.8370443 194.20561302 -187.36230469 194.18994141 C-167.90495753 194.09569061 -148.85695645 193.50784765 -130.53125 186.2734375 C-129.39260498 185.8410376 -129.39260498 185.8410376 -128.23095703 185.39990234 C-114.81983114 180.40046889 -114.81983114 180.40046889 -103.21875 172.4609375 C-100.63235962 172.36585929 -98.0727644 172.33537374 -95.48608398 172.34741211 C-94.27154541 172.34719307 -94.27154541 172.34719307 -93.0324707 172.3469696 C-90.34323492 172.34766896 -87.65406751 172.3554624 -84.96484375 172.36328125 C-83.10539284 172.36514535 -81.24594144 172.36656929 -79.38648987 172.36756897 C-74.48245904 172.37139479 -69.57845764 172.38122562 -64.67443848 172.39227295 C-59.67423908 172.40248569 -54.67403494 172.40706629 -49.67382812 172.41210938 C-39.85545579 172.42284783 -30.03710534 172.43992502 -20.21875 172.4609375 C-20.25706387 162.82785596 -20.31679212 153.19519941 -20.40265274 143.56242371 C-20.44188947 139.08782649 -20.47419304 134.61341906 -20.48974609 130.13867188 C-20.50507163 125.80713063 -20.53979119 121.47611206 -20.58705902 117.14480591 C-20.60171113 115.50575344 -20.60978153 113.86662628 -20.61063385 112.22750854 C-20.63366473 90.11130499 -26.35966504 71.78489743 -42.08203125 55.53515625 C-55.99448123 42.54444209 -72.87575639 37.89739488 -91.40625 38.18359375 C-105.30058125 38.72820385 -117.86380948 46.51153588 -127.21875 56.4609375 C-137.0052063 67.9274398 -144.3150151 81.30299454 -151.3371582 94.57470703 C-153.93897668 99.39555912 -155.92477213 100.84582561 -161.21875 102.4609375 C-166.51653774 103.39631926 -171.61944893 103.60772127 -176.9765625 103.59375 C-178.21392654 103.59518509 -178.21392654 103.59518509 -179.47628784 103.59664917 C-181.21596351 103.59732661 -182.95564176 103.5955029 -184.6953125 103.59130859 C-187.31516424 103.58599547 -189.93484131 103.59124714 -192.5546875 103.59765625 C-201.82900726 103.60095789 -210.98272216 103.38390955 -220.21875 102.4609375 C-221.45934123 70.0448671 -209.05372965 38.49832536 -187.78125 14.2734375 C-186.27054456 12.65972941 -184.74937376 11.05576528 -183.21875 9.4609375 C-182.38859375 8.56761719 -181.5584375 7.67429688 -180.703125 6.75390625 C-133.04981149 -43.05913346 -51.5879964 -43.43472111 0 0 Z " fill="#F6841F" transform="translate(1251.21875,104.5390625)"/>
<path d="M0 0 C2.32421875 1.71484375 2.32421875 1.71484375 4.6875 3.9375 C5.55375 4.74960938 6.42 5.56171875 7.3125 6.3984375 C8.6428125 7.68621094 8.6428125 7.68621094 10 9 C10.86625 9.83789062 11.7325 10.67578125 12.625 11.5390625 C16.25999585 15.11864683 19.78172079 18.72816169 23.10180664 22.60180664 C27.17635468 27.26893557 31.50549968 31.64961028 35.890625 36.0234375 C36.71705505 36.85082428 37.54348511 37.67821106 38.3949585 38.53067017 C40.12828862 40.26467646 41.86286482 41.99743796 43.59863281 43.72900391 C46.25962689 46.38460739 48.91519796 49.04555071 51.5703125 51.70703125 C53.26009582 53.39615436 54.95018901 55.08496756 56.640625 56.7734375 C57.43438538 57.56922211 58.22814575 58.36500671 59.04595947 59.18490601 C59.78392761 59.91972198 60.52189575 60.65453796 61.28222656 61.41162109 C61.92951721 62.05811615 62.57680786 62.70461121 63.24371338 63.37069702 C67.62318584 67.43352335 71.2933091 67.30472438 76.96948242 67.31884766 C78.34539299 67.33391609 78.34539299 67.33391609 79.74909973 67.34928894 C82.78454963 67.38020858 85.81991098 67.3971805 88.85546875 67.4140625 C90.95869208 67.43276708 93.06190786 67.45233995 95.16511536 67.4727478 C100.70363923 67.52414999 106.24218745 67.56373244 111.78082275 67.60089111 C117.43141748 67.64088009 123.0819102 67.6919957 128.73242188 67.7421875 C139.82154301 67.83904253 150.91072164 67.92341665 162 68 C161.99476318 69.15987427 161.98952637 70.31974854 161.98413086 71.51477051 C161.93992827 82.46131213 161.93783402 93.40716571 161.97665405 104.35373688 C161.99526602 109.98121846 161.99919436 115.60790231 161.96923828 121.23535156 C161.94085777 126.66932505 161.95147593 132.10196795 161.98880005 137.53587341 C161.99622972 139.6058271 161.98975702 141.67588022 161.96896362 143.7457428 C161.47184649 154.76494453 161.47184649 154.76494453 164.73999023 164.97119141 C166.72471607 166.96432999 168.67109109 168.44170048 171 170 C172.05758338 171.15489148 173.08437404 172.33958277 174.0625 173.5625 C178.23693888 178.43107191 182.83050501 182.88246599 187.40649414 187.36938477 C190.51193362 190.43276594 193.50454262 193.53029153 196.34765625 196.83984375 C200.6409107 201.81625311 205.28165785 206.42761438 209.9375 211.0625 C210.79279297 211.92166016 211.64808594 212.78082031 212.52929688 213.66601562 C217.52399161 218.65309069 222.64038357 223.40942152 228 228 C229 229 229 229 229.3581543 231.77416992 C228.8829338 236.05439377 227.55905066 236.89399458 224.26953125 239.61328125 C223.1567595 240.5701577 222.04854916 241.53235294 220.94384766 242.49853516 C220.00801849 243.31502533 220.00801849 243.31502533 219.05328369 244.14801025 C215.00336842 247.80089153 211.17829936 251.6858599 207.32421875 255.54296875 C206.03368088 256.83184494 206.03368088 256.83184494 204.71707153 258.14675903 C202.94003154 259.92343049 201.16415619 261.70126753 199.3894043 263.48022461 C196.67935604 266.19566014 193.96396751 268.90567364 191.24804688 271.61523438 C189.50228324 273.36165842 187.75682963 275.10839244 186.01171875 276.85546875 C184.80995247 278.05419868 184.80995247 278.05419868 183.58390808 279.27714539 C179.50485305 283.37308377 175.53173427 287.51094023 171.80582047 291.93304729 C170 294 170 294 168.1703968 295.79835033 C163.99293354 300.03352767 162.20002175 302.98413769 162.06559753 308.96072388 C162.08141373 309.81093109 162.09722992 310.66113831 162.11352539 311.53710938 C162.10274963 312.45511322 162.09197388 313.37311707 162.08087158 314.31893921 C162.05364534 317.32804398 162.07529113 320.33464047 162.09765625 323.34375 C162.08826601 325.43983507 162.07580505 327.53590844 162.06040955 329.63195801 C162.02823522 335.12962129 162.03760764 340.62644888 162.05578613 346.12414551 C162.06695829 351.74171024 162.03862677 357.35906264 162.01367188 362.9765625 C161.97056644 373.98452407 161.97137417 384.99200752 162 396 C160.8364801 395.98810135 159.67296021 395.9762027 158.47418213 395.96394348 C147.47005694 395.85865034 136.46700222 395.81183989 125.46236038 395.82121754 C119.8054831 395.8241873 114.15019818 395.80707657 108.49365234 395.74291992 C103.02702054 395.68167525 97.56268619 395.6746874 92.09581757 395.70416832 C90.01793029 395.70606123 87.93992948 395.6889169 85.86237335 395.65177345 C72.81252378 395.15264148 72.81252378 395.15264148 61.50602341 400.74775982 C59.16720113 403.0290994 57.08570288 405.4874992 55 408 C53.10032246 409.93805669 51.14549322 411.80736899 49.1875 413.6875 C46.24834637 416.65170324 43.39263198 419.63396992 40.6875 422.8125 C36.76067852 427.42390053 32.41803071 431.60982751 28.11401367 435.86425781 C25.11614277 438.84016483 22.20465839 441.81277015 19.5 445.0625 C16.22382864 448.92670211 12.57019818 452.35608454 8.875 455.8125 C8.27623047 456.37654541 7.67746094 456.94059082 7.06054688 457.52172852 C0.65225263 463.44441091 0.65225263 463.44441091 -3 465 C-7.03782795 463.67552913 -9.29222557 460.70436461 -12.04418945 457.59130859 C-13.02498161 456.49668937 -14.00758566 455.40369135 -14.99185181 454.31219482 C-15.4917374 453.75759331 -15.991623 453.20299179 -16.50665665 452.63158417 C-20.62561622 448.13132693 -24.98155623 443.85369226 -29.29296875 439.5390625 C-30.33432116 438.49448229 -31.37560482 437.44983353 -32.41682434 436.40512085 C-34.57553325 434.24049576 -36.7362248 432.07787309 -38.89819336 429.91650391 C-41.64987305 427.16492651 -44.3945604 424.40648382 -47.13761425 421.64631081 C-49.27645253 419.49630043 -51.41987487 417.35090463 -53.56456947 415.20673752 C-54.57834421 414.1917945 -55.59052575 413.17525718 -56.60097313 412.1570015 C-58.01586192 410.73218658 -59.43788335 409.31446571 -60.86010742 407.89697266 C-62.06276497 406.69217758 -62.06276497 406.69217758 -63.28971863 405.46304321 C-64.18411148 404.65023895 -65.07850433 403.83743469 -66 403 C-66.58344995 402.46822962 -67.16689991 401.93645924 -67.76803017 401.3885746 C-72.94756596 397.04434569 -76.77757194 396.13014256 -83.4453125 396.22705078 C-84.35356277 396.21642105 -85.26181305 396.20579132 -86.19758606 396.19483948 C-89.1739646 396.16692733 -92.14855205 396.18081102 -95.125 396.1953125 C-97.19866475 396.18405528 -99.27231676 396.17017156 -101.34594727 396.15377808 C-106.78431643 396.11780191 -112.2221227 396.11735882 -117.6605835 396.12445068 C-123.21783461 396.12536482 -128.77487617 396.0924875 -134.33203125 396.0625 C-145.22141315 396.00869573 -156.11049982 395.992449 -167 396 C-166.99254257 394.84678757 -166.98508514 393.69357513 -166.97740173 392.50541687 C-166.91280765 381.60396161 -166.89587156 370.7033192 -166.92484188 359.80169964 C-166.93822272 354.19773732 -166.93518058 348.59481353 -166.89379883 342.9909668 C-166.85443216 337.57635796 -166.85926037 332.16338137 -166.89392281 326.74875832 C-166.89949463 324.6896368 -166.88950412 322.63040884 -166.86323357 320.57144737 C-166.47740099 307.03173463 -166.47740099 307.03173463 -172.39453125 295.33618164 C-173.8877224 293.84747469 -175.41788336 292.39383468 -177 291 C-177.93630144 290.00216089 -178.86642845 288.99841766 -179.78515625 287.984375 C-180.53667969 287.24703125 -181.28820312 286.5096875 -182.0625 285.75 C-182.81660156 285.00234375 -183.57070312 284.2546875 -184.34765625 283.484375 C-186.39311438 281.56845251 -188.46179791 279.74170605 -190.58984375 277.921875 C-196.71053062 272.60078577 -202.31696173 266.73987671 -208.00927734 260.97021484 C-213.29303612 255.62120328 -218.59124605 250.37403802 -224.31103516 245.484375 C-226.69451417 243.3896146 -228.82322468 241.11323217 -230.9375 238.75 C-231.68902344 237.91984375 -232.44054687 237.0896875 -233.21484375 236.234375 C-235 234 -235 234 -236 231 C-229.48342093 223.67961382 -222.73377478 216.62591019 -215.8125 209.6875 C-215.06500488 208.93549316 -214.31750977 208.18348633 -213.54736328 207.40869141 C-210.24594599 204.11600609 -206.93310042 200.89815305 -203.37890625 197.87890625 C-197.32206826 192.6591983 -191.75748074 186.90603143 -186.11621094 181.24658203 C-184.11246555 179.23743174 -182.10337293 177.2337383 -180.09375 175.23046875 C-178.81478302 173.95084173 -177.53612586 172.67090496 -176.2578125 171.390625 C-175.65889191 170.79372864 -175.05997131 170.19683228 -174.44290161 169.58184814 C-168.87005374 163.97732774 -167.70045442 160.78806083 -167.68115234 153.03051758 C-167.67110672 152.11324387 -167.6610611 151.19597015 -167.65071106 150.25090027 C-167.61979142 147.21545037 -167.6028195 144.18008902 -167.5859375 141.14453125 C-167.56723292 139.04130792 -167.54766005 136.93809214 -167.5272522 134.83488464 C-167.47585001 129.29636077 -167.43626756 123.75781255 -167.39910889 118.21917725 C-167.35911991 112.56858252 -167.3080043 106.9180898 -167.2578125 101.26757812 C-167.16095747 90.17845699 -167.07658335 79.08927836 -167 68 C-165.30110374 68.00119339 -165.30110374 68.00119339 -163.56788635 68.00241089 C-152.87183923 68.0060199 -142.17627161 67.97812417 -131.48037815 67.9197216 C-125.98200268 67.89070229 -120.48405246 67.87261852 -114.9855957 67.87988281 C-109.67493945 67.88649072 -104.36512243 67.86390728 -99.05463982 67.82144547 C-97.03298875 67.81034035 -95.01125232 67.80959057 -92.98959541 67.81957626 C-79.37582857 68.33535719 -79.37582857 68.33535719 -67.54161072 62.54208374 C-66.77851341 61.77875229 -66.77851341 61.77875229 -66 61 C-64.93809793 60.11907041 -63.87562566 59.23882755 -62.8125 58.359375 C-57.46064285 53.39404086 -52.36431702 48.37102036 -47.55078125 42.87109375 C-43.62585366 38.45329624 -39.55248575 34.17607507 -35.4909668 29.8840332 C-32.44605859 26.65434059 -29.45741464 23.3969632 -26.55859375 20.03515625 C-22.78455369 15.69044909 -18.76686512 11.61918097 -14.6875 7.5625 C-13.61532227 6.48452148 -13.61532227 6.48452148 -12.52148438 5.38476562 C-11.83763672 4.70220703 -11.15378906 4.01964844 -10.44921875 3.31640625 C-9.83393311 2.70224854 -9.21864746 2.08809082 -8.5847168 1.45532227 C-5.54720835 -1.33416901 -3.86484951 -1.17133799 0 0 Z M-7.11499023 25.42114258 C-8.3798144 26.62817741 -9.63075418 27.84984984 -10.87109375 29.08203125 C-11.90767372 30.08385185 -11.90767372 30.08385185 -12.9651947 31.10591125 C-15.32240945 33.39166538 -17.66074837 35.69587453 -20 38 C-21.75198223 39.70572172 -23.50477517 41.41061106 -25.25830078 43.11474609 C-29.9331217 47.66979986 -34.57618863 52.25573778 -39.20629883 56.85620117 C-41.13410531 58.77042047 -43.06905623 60.6769949 -45.01000977 62.57788086 C-47.84486763 65.35433793 -50.65946659 68.15080031 -53.47265625 70.94921875 C-54.34632339 71.80021652 -55.21999054 72.65121429 -56.12013245 73.52799988 C-56.90943649 74.32015396 -57.69874054 75.11230804 -58.51196289 75.9284668 C-59.21204971 76.62046677 -59.91213654 77.31246674 -60.63343811 78.0254364 C-62.23220103 79.89079876 -62.23220103 79.89079876 -61.83274841 82.10774231 C-60.58795228 84.93629776 -58.73484643 86.80658728 -56.625 89.0625 C-55.92262207 89.81611816 -55.92262207 89.81611816 -55.20605469 90.58496094 C-49.55641815 96.58172248 -43.6837199 102.36757589 -37.81494141 108.14868164 C-33.54098107 112.37536952 -29.43997308 116.65956251 -25.56616211 121.2578125 C-23.35068374 123.72229475 -20.85756523 125.78879096 -18.33203125 127.92578125 C-13.32917358 132.37555918 -8.69738109 137.2321582 -4 142 C0.01571255 140.39140496 2.70479614 137.56359635 5.68652344 134.54052734 C6.24306107 133.98428177 6.79959869 133.42803619 7.3730011 132.85493469 C9.20657442 131.01997095 11.03296672 129.17803069 12.859375 127.3359375 C14.13117525 126.06040611 15.40341853 124.78531633 16.67608643 123.51065063 C20.02106258 120.15804605 23.35998851 116.79947827 26.69769287 113.43963623 C30.10602831 110.01082544 33.52004745 106.58768427 36.93359375 103.1640625 C43.62797297 96.44824728 50.31597466 89.72611906 57 83 C51.85036752 75.62925001 45.73581389 69.42588123 39.3984375 63.09765625 C38.27294515 61.96827008 37.14767429 60.83866315 36.02261353 59.70884705 C33.6776343 57.35644982 31.32887495 55.00790797 28.97753906 52.66186523 C25.96512024 49.65527512 22.96430199 46.63738876 19.96637535 43.61635685 C17.65190351 41.2871702 15.33056028 38.96492899 13.00716019 36.64465141 C11.8972318 35.53420999 10.78966199 34.42140582 9.68452072 33.30620003 C8.14358217 31.75294062 6.59342541 30.20950293 5.04052734 28.66821289 C4.1614975 27.78855362 3.28246765 26.90889435 2.37680054 26.00257874 C-1.62842945 22.62796304 -2.86890652 22.12085163 -7.11499023 25.42114258 Z M-150 84 C-150 111.72 -150 139.44 -150 168 C-122.61 168 -95.22 168 -67 168 C-67 140.28 -67 112.56 -67 84 C-94.39 84 -121.78 84 -150 84 Z M61 84 C61 111.72 61 139.44 61 168 C88.72 168.33 116.44 168.66 145 169 C145.020625 161.843125 145.04125 154.68625 145.0625 147.3125 C145.071604 145.14341064 145.08070801 142.97432129 145.09008789 140.73950195 C145.11557665 121.79148697 144.51274846 102.97169294 144 84 C116.61 84 89.22 84 61 84 Z M40.20933533 123.67041016 C39.42990067 124.45206543 38.650466 125.2337207 37.84741211 126.0390625 C36.52615578 127.36043213 36.52615578 127.36043213 35.1782074 128.70849609 C34.21119976 129.68061125 33.2442465 130.65278052 32.27734375 131.625 C31.2924997 132.61170812 30.30743536 133.59819641 29.32215881 134.58447266 C26.72409741 137.18636008 24.12905236 139.79123612 21.53460693 142.39672852 C18.88880558 145.05274219 16.2401863 147.7059424 13.59179688 150.359375 C8.39175629 155.57015438 3.19489646 160.78409163 -2 166 C-5.00077036 164.5630921 -7.06631746 163.16416019 -9.390625 160.76953125 C-10.33228516 159.81143555 -10.33228516 159.81143555 -11.29296875 158.83398438 C-11.93878906 158.16689453 -12.58460938 157.49980469 -13.25 156.8125 C-17.02264575 152.93570145 -20.78717604 149.1263214 -24.89453125 145.6015625 C-29.65809191 141.50151023 -34.03189394 137.04026996 -38.4375 132.5625 C-40.03809217 130.93656196 -41.64083187 129.31273413 -43.24609375 127.69140625 C-43.94404053 126.98185791 -44.6419873 126.27230957 -45.36108398 125.54125977 C-46.74644888 123.88582164 -46.74644888 123.88582164 -48 124 C-48 144.46 -48 164.92 -48 186 C-68.79 186 -89.58 186 -111 186 C-106.00164261 191.84579541 -106.00164261 191.84579541 -100.72265625 197.33984375 C-99.96146484 198.09330078 -99.20027344 198.84675781 -98.41601562 199.62304688 C-96.85094387 201.16214233 -95.28583987 202.701205 -93.72070312 204.24023438 C-89.51560915 208.40267313 -85.50150079 212.63986975 -81.64575195 217.12719727 C-79.07912744 220.04791773 -76.33325986 222.77443447 -73.5625 225.5 C-73.02173828 226.03625 -72.48097656 226.5725 -71.92382812 227.125 C-70.61823383 228.41904036 -69.30947004 229.70988174 -68 231 C-69.29651895 233.82929247 -70.68652302 235.96693235 -72.81640625 238.23046875 C-73.40421875 238.85695313 -73.99203125 239.4834375 -74.59765625 240.12890625 C-75.24605469 240.80824219 -75.89445312 241.48757812 -76.5625 242.1875 C-77.57957031 243.26257813 -77.57957031 243.26257813 -78.6171875 244.359375 C-86.55865842 252.69027007 -94.73674675 260.79125735 -102.92016602 268.88354492 C-103.45525284 269.41433151 -103.99033966 269.9451181 -104.54164124 270.49198914 C-105.55800504 271.49993978 -106.57643493 272.50581237 -107.59715271 273.50935364 C-108.75032736 274.65418141 -109.87814338 275.82446603 -111 277 C-111 277.33 -111 277.66 -111 278 C-90.21 278 -69.42 278 -48 278 C-48 298.46 -48 318.92 -48 340 C-42.24713399 335.0889787 -42.24713399 335.0889787 -36.80883789 329.92236328 C-36.06859879 329.18204865 -35.32835968 328.44173401 -34.56568909 327.6789856 C-33.79248825 326.90062347 -33.01928741 326.12226135 -32.22265625 325.3203125 C-31.41130722 324.50754852 -30.59995819 323.69478455 -29.76402283 322.85739136 C-27.1944741 320.28228262 -24.62844032 317.7037038 -22.0625 315.125 C-20.31208071 313.36956054 -18.561432 311.61434983 -16.81054688 309.859375 C-12.53770698 305.57555918 -8.26774101 301.28889528 -4 297 C-0.55376294 298.48235111 1.66373822 300.42584445 4.29370117 303.08251953 C5.13104294 303.92324005 5.9683847 304.76396057 6.83110046 305.63015747 C7.726017 306.53853363 8.62093353 307.44690979 9.54296875 308.3828125 C10.95463451 309.80242335 12.36630269 311.2220318 13.77811909 312.64149284 C15.75046124 314.62695379 17.7182217 316.61692534 19.68597412 318.60693359 C23.14074188 322.09975843 26.6004271 325.58769814 30.06355286 329.07223511 C31.90701743 330.92802162 33.74780368 332.78647299 35.58573914 334.6477356 C36.41362442 335.48215179 37.2415097 336.31656799 38.09448242 337.17626953 C38.82632248 337.91636261 39.55816254 338.65645569 40.31217957 339.41897583 C41.73619396 341.11394003 41.73619396 341.11394003 43 341 C43 320.21 43 299.42 43 278 C50.92 278 58.84 278 67 278 C73.66869472 277.86023694 80.33347318 277.70367285 87 277.5 C88.67316796 277.45150709 90.3463451 277.40332988 92.01953125 277.35546875 C96.01313488 277.24057541 100.006594 277.12156093 104 277 C99.64350382 270.78114756 94.71734119 265.45045376 89.3203125 260.125 C88.50754852 259.31506592 87.69478455 258.50513184 86.85739136 257.6706543 C84.28462309 255.10899596 81.70495619 252.55441684 79.125 250 C77.3693294 248.25437106 75.61411636 246.50828179 73.859375 244.76171875 C69.57819321 240.50247533 65.29133991 236.24900727 61 232 C65.61328293 226.45131965 70.54162957 221.35554032 75.6796875 216.29296875 C77.34648342 214.63880211 79.0131463 212.98450139 80.6796875 211.33007812 C83.29174989 208.74297017 85.90539011 206.15749397 88.52148438 203.57446289 C91.05769784 201.06827358 93.58780456 198.55604887 96.1171875 196.04296875 C96.90769501 195.26592087 97.69820251 194.48887299 98.51266479 193.6882782 C99.23406647 192.97025528 99.95546814 192.25223236 100.69873047 191.51245117 C101.33793427 190.8807048 101.97713806 190.24895844 102.63571167 189.59806824 C104.21642848 188.09668757 104.21642848 188.09668757 104 186 C83.87 186 63.74 186 43 186 C43 164.88 43 143.76 43 122 C41.7137346 121.88631219 41.7137346 121.88631219 40.20933533 123.67041016 Z M-154 172 C-155.30567127 173.49481057 -156.54251025 175.049816 -157.75 176.625 C-161.60772257 181.44871126 -165.68799849 185.89077751 -170.0625 190.25 C-170.62743164 190.81541504 -171.19236328 191.38083008 -171.77441406 191.96337891 C-174.61772032 194.77153215 -177.51478896 197.46140252 -180.55859375 200.05078125 C-187.03588086 205.65896401 -192.96647497 211.86202052 -199 217.9375 C-200.2640885 219.20661373 -201.52840956 220.47549589 -202.79296875 221.74414062 C-205.86466724 224.8267632 -208.93320008 227.91250428 -212 231 C-209.52059667 235.72314941 -206.17793648 239.09632649 -202.42578125 242.8046875 C-201.78311813 243.4468924 -201.14045502 244.08909729 -200.47831726 244.75076294 C-199.11982896 246.1062377 -197.75891857 247.45928879 -196.39575195 248.81005859 C-194.33167666 250.85599189 -192.27560203 252.90969836 -190.22070312 254.96484375 C-188.89369757 256.28692864 -187.56623775 257.60855777 -186.23828125 258.9296875 C-185.63276932 259.53408661 -185.02725739 260.13848572 -184.40339661 260.76119995 C-180.66053126 264.46361552 -176.80208156 267.98460157 -172.81100464 271.41824341 C-170.03860059 273.83969959 -167.41287365 276.39617071 -164.8125 279 C-164.2978418 279.51401367 -163.78318359 280.02802734 -163.25292969 280.55761719 C-159.71292153 284.14732552 -156.70236175 287.75343153 -154 292 C-150.66421487 290.54844106 -148.47501397 288.72074062 -145.91796875 286.1484375 C-145.15033203 285.37886719 -144.38269531 284.60929687 -143.59179688 283.81640625 C-142.79837891 283.01074219 -142.00496094 282.20507812 -141.1875 281.375 C-140.40568359 280.59253906 -139.62386719 279.81007813 -138.81835938 279.00390625 C-135.32978876 275.48910579 -131.93670785 271.94444301 -128.70019531 268.19580078 C-125.07268528 264.02660986 -121.2381033 260.1099559 -117.31640625 256.21875 C-116.61603745 255.51979614 -115.91566864 254.82084229 -115.19407654 254.10070801 C-112.98591542 251.89808461 -110.77427963 249.69898919 -108.5625 247.5 C-107.05250186 245.99502492 -105.5427341 244.48981865 -104.03320312 242.984375 C-100.35812359 239.32024171 -96.67992644 235.6592652 -93 232 C-98.61404415 225.16086241 -104.86204448 218.9740101 -111.109375 212.72265625 C-112.28435383 211.54446003 -113.45925904 210.36619039 -114.63409424 209.18785095 C-117.08323366 206.73275489 -119.53439941 204.2797027 -121.98681641 201.82788086 C-125.1349419 198.67985772 -128.27608978 195.52496789 -131.41558456 192.36834049 C-133.83303128 189.93981204 -136.25497189 187.51580485 -138.67823029 185.09307671 C-139.83930219 183.93082236 -140.99874739 182.76694066 -142.15654755 181.60142708 C-143.76732903 179.98090729 -145.38425044 178.36677595 -147.00292969 176.75415039 C-147.92193054 175.83372452 -148.8409314 174.91329865 -149.78778076 173.96498108 C-151.75606745 171.77863577 -151.75606745 171.77863577 -154 172 Z M142.19482422 175.68075562 C141.65607666 176.22309845 141.1173291 176.76544128 140.56225586 177.32421875 C139.99640274 177.88992584 139.43054962 178.45563293 138.84754944 179.03848267 C136.96760255 180.91912926 135.09122776 182.80329913 133.21484375 184.6875 C131.91611615 185.98809158 130.61716838 187.28846334 129.31800842 188.58862305 C125.89137638 192.01908188 122.46775728 195.45253264 119.04473877 198.88659668 C115.55441301 202.3871331 112.06127135 205.884857 108.56835938 209.3828125 C101.70946702 216.25244503 94.85375157 223.12523883 88 230 C89.28243291 233.34375958 90.395499 235.77912218 92.87109375 238.3828125 C93.72453369 239.28966797 93.72453369 239.28966797 94.59521484 240.21484375 C95.20316895 240.84519531 95.81112305 241.47554688 96.4375 242.125 C97.06350098 242.78371094 97.68950195 243.44242187 98.33447266 244.12109375 C100.21334171 246.09029764 102.10376158 248.04752795 104 250 C104.52964355 250.54624023 105.05928711 251.09248047 105.60498047 251.65527344 C109.81862963 255.98115725 114.05933651 260.20929565 118.64453125 264.140625 C123.95545371 268.75208448 128.86396313 273.75644495 133.8125 278.75 C134.76213215 279.70466353 135.71200066 280.65909201 136.66210938 281.61328125 C138.3954471 283.35529186 140.12775023 285.09833303 141.85864258 286.84277344 C143.56872705 288.56553098 145.2835673 290.2835673 147 292 C166.8 272.2 186.6 252.4 207 232 C203.40247051 227.80288226 199.97536973 223.84803645 196.1015625 219.96875 C194.76351562 218.62876953 194.76351562 218.62876953 193.3984375 217.26171875 C192.02558594 215.89466797 192.02558594 215.89466797 190.625 214.5 C189.7175 213.58863281 188.81 212.67726562 187.875 211.73828125 C184.05748607 207.92626806 180.25284877 204.15154333 176.14453125 200.65234375 C170.11560782 195.48141779 164.64116394 189.70815576 159.0625 184.0625 C156.80622564 181.77971465 154.54669926 179.5002206 152.28515625 177.22265625 C151.76856949 176.69777115 151.25198273 176.17288605 150.71974182 175.63209534 C149.49860529 174.40246007 148.25189311 173.19830753 147 172 C144.8922584 172 143.60434637 174.27519267 142.19482422 175.68075562 Z M-150 296 C-150 323.39 -150 350.78 -150 379 C-122.61 379 -95.22 379 -67 379 C-67 351.61 -67 324.22 -67 296 C-94.39 296 -121.78 296 -150 296 Z M61 296 C61 323.39 61 350.78 61 379 C88.39 379 115.78 379 144 379 C144 351.61 144 324.22 144 296 C116.61 296 89.22 296 61 296 Z M-3 321 C-12.69922288 329.44771025 -22.33150945 338.33264326 -30.625 348.1875 C-33.37490986 351.43115926 -36.40925615 354.28165353 -39.5625 357.125 C-44.32414113 361.4265755 -48.98709108 365.81282116 -53.5625 370.3125 C-54.15812744 370.88693848 -54.75375488 371.46137695 -55.36743164 372.05322266 C-58.77999039 375.43782971 -61.08972036 378.50642404 -63 383 C-62.06994141 383.71349609 -62.06994141 383.71349609 -61.12109375 384.44140625 C-55.14179983 389.16739839 -49.6333026 394.17381477 -44.25 399.5625 C-43.63697021 400.17488525 -43.02394043 400.78727051 -42.39233398 401.41821289 C-39.4447397 404.40071341 -36.6058956 407.42885174 -33.88671875 410.62109375 C-28.45443407 416.9018394 -22.45176105 422.6530503 -16.5625 428.5 C-15.3415631 429.71591114 -14.12085808 430.93205516 -12.90039062 432.1484375 C-9.93625987 435.10164966 -6.96901042 438.05169398 -4 441 C0.07316721 438.6313717 3.50191629 435.95847688 6.9375 432.75 C7.51048828 432.21753662 8.08347656 431.68507324 8.67382812 431.13647461 C13.19891846 426.8735385 17.42151888 422.38629033 21.61157227 417.79760742 C28.64657728 410.17182588 36.02935246 402.88678619 43.375 395.5625 C44.04499023 394.89437286 44.71498047 394.22624573 45.40527344 393.53787231 C49.26683894 389.68854566 53.13199126 385.84285158 57 382 C52.26247416 376.29603982 47.17771863 371.06204254 41.91015625 365.84765625 C41.04740585 364.98869247 40.18465546 364.1297287 39.29576111 363.24473572 C35.63040457 359.59561893 31.95911792 355.95248975 28.28833008 352.30883789 C25.59768619 349.63636596 22.91011389 346.96083168 20.22265625 344.28515625 C18.99265648 343.06760399 18.99265648 343.06760399 17.73780823 341.82545471 C13.50554967 337.61109788 9.44079644 333.33397169 5.59153748 328.7653656 C2.97698503 325.86525108 0.02143594 323.46647832 -3 321 Z " fill="#BB2C32" transform="translate(236,1)"/>
<path d="M0 0 C17.75117286 -0.02343215 35.50234167 -0.04102962 53.25352669 -0.05181217 C61.49698531 -0.0569533 69.74043429 -0.06395409 77.98388672 -0.07543945 C85.1746623 -0.08545332 92.36543089 -0.09186928 99.55621326 -0.09408849 C103.35839827 -0.09538429 107.16056329 -0.09839766 110.96274185 -0.10573006 C114.55286632 -0.1125964 118.14296285 -0.11459574 121.73309326 -0.11310768 C123.65555175 -0.11350728 125.57800731 -0.11884649 127.50045776 -0.12442017 C159.98639533 -0.08658781 184.89409213 10.26138257 208 33 C208.70640625 33.68191406 209.4128125 34.36382812 210.140625 35.06640625 C229.25774227 54.92178618 238.59618808 83.08926914 238.21484375 110.203125 C237.4673451 133.21308346 228.50170757 156.20496571 214 174 C213.32453125 174.83917969 212.6490625 175.67835938 211.953125 176.54296875 C198.10965472 192.83683432 178.45832837 203.44929075 158 209 C156.33130859 209.45826172 156.33130859 209.45826172 154.62890625 209.92578125 C148.27415637 211.47589943 142.02908126 212.26157499 135.51635742 212.58569336 C134.69754436 212.6271067 133.87873129 212.66852003 133.03510571 212.71118832 C122.5199861 213.18319948 112.00950967 213.01713671 101.48828125 212.87890625 C99.2958381 212.85453063 97.10338894 212.83069119 94.91093445 212.80735779 C89.20813 212.74525551 83.50543549 212.6759897 77.80273438 212.60510254 C71.95643008 212.53374131 66.11004934 212.46933357 60.26367188 212.40429688 C48.84236386 212.27624024 37.42116007 212.14059663 26 212 C26.00999275 213.89014832 26.00999275 213.89014832 26.02018738 215.81848145 C26.08106112 227.70660743 26.12600281 239.59470169 26.15543652 251.4829483 C26.17107748 257.59449267 26.19228739 263.70591098 26.22631836 269.81738281 C26.25896733 275.71774023 26.27686482 281.61797656 26.28463173 287.51841736 C26.29016526 289.76702276 26.30097088 292.0156217 26.31719017 294.26417542 C26.33903767 297.41910001 26.34196381 300.57352729 26.34057617 303.72851562 C26.351362 304.65352875 26.36214783 305.57854187 26.3732605 306.53158569 C26.33757409 314.05344338 24.92008717 320.88718035 19.60327148 326.62817383 C12.15113051 333.00453748 4.01055641 333.79907049 -5.44970703 333.65185547 C-7.49829909 333.62502228 -9.54141688 333.65171734 -11.58984375 333.68359375 C-19.6304365 333.7056746 -26.37450725 332.86233566 -33 328 C-39.55836879 321.14487994 -41.30942244 314.43529189 -41.22705078 305.14892578 C-41.22734283 304.27998184 -41.22763489 303.4110379 -41.22793579 302.51576233 C-41.22654838 299.65884226 -41.21101493 296.80218672 -41.1953125 293.9453125 C-41.19158028 291.95848737 -41.18873429 289.97166039 -41.18673706 287.98483276 C-41.17911709 282.7668343 -41.15948263 277.54894796 -41.1373291 272.33099365 C-41.11683543 267.00192786 -41.10772781 261.67284388 -41.09765625 256.34375 C-41.07623521 245.89578419 -41.04211901 235.44790144 -41 225 C-40.28817062 224.83591644 -39.57634125 224.67183289 -38.84294128 224.5027771 C-35.57470966 223.74544991 -32.30886519 222.97826972 -29.04296875 222.2109375 C-27.92337769 221.95304443 -26.80378662 221.69515137 -25.65026855 221.42944336 C-16.52288545 219.27336861 -8.30085583 216.33009027 0 212 C0.91313965 211.53207031 0.91313965 211.53207031 1.84472656 211.0546875 C27.91018084 197.51990808 47.207319 174.75693896 57.11181641 147.24487305 C57.46692291 146.2607695 57.82202942 145.27666595 58.18789673 144.26274109 C58.58988785 143.14268425 58.58988785 143.14268425 59 142 C60.5076442 141.99453156 60.5076442 141.99453156 62.04574585 141.98895264 C71.54945094 141.95190185 81.05283504 141.89401956 90.55629539 141.81609726 C95.44135189 141.7767028 100.32623029 141.74447506 105.21142578 141.72900391 C109.93195446 141.71378426 114.65199326 141.67924515 119.37230301 141.63169098 C121.16703644 141.61693172 122.96183984 141.60896214 124.75663376 141.60811615 C138.50249295 141.59512873 148.41434075 140.46310457 158.796875 130.5703125 C163.47397097 125.11370054 166.52975858 118.2103684 167 111 C167.05027344 110.37222656 167.10054687 109.74445313 167.15234375 109.09765625 C167.58412263 99.54670744 165.54333064 89.6856193 159.796875 81.93359375 C153.96860754 75.66187116 145.55924982 71.07203266 136.92492676 70.60127258 C135.47162475 70.57527714 134.01798486 70.56480046 132.56445312 70.56762695 C131.76349213 70.5574353 130.96253113 70.54724365 130.13729858 70.53674316 C127.51854274 70.50681157 124.90015384 70.49737792 122.28125 70.48828125 C120.45421146 70.47141981 118.62718442 70.45326761 116.8001709 70.43388367 C112.01301669 70.38653659 107.22590913 70.35662853 102.43859863 70.33044434 C97.54490961 70.30056138 92.65138101 70.25405773 87.7578125 70.20898438 C78.17195918 70.12312539 68.58607269 70.05570296 59 70 C58.65922928 69.24944336 58.31845856 68.49888672 57.96736145 67.72558594 C57.51898422 66.73848633 57.07060699 65.75138672 56.60864258 64.734375 C56.16474686 63.75694336 55.72085114 62.77951172 55.26350403 61.77246094 C48.70753811 47.38694335 40.87484975 35.55331631 30 24 C29.41089844 23.33484375 28.82179688 22.6696875 28.21484375 21.984375 C20.53194331 13.67671122 10.22229391 6.79269543 0 2 C0 1.34 0 0.68 0 0 Z " fill="#BB2C32" transform="translate(736,77)"/>
<path d="M0 0 C1.20462891 -0.02416992 1.20462891 -0.02416992 2.43359375 -0.04882812 C8.09380181 -0.053415 12.45658567 0.64573888 17.5 3.3125 C24.98171073 17.52368423 21.65890776 42.51963702 17.5 57.3125 C17.18289063 58.49199219 16.86578125 59.67148438 16.5390625 60.88671875 C11.96727906 76.14220889 4.42485996 90.67063714 -6.5 102.3125 C-7.25667969 103.15941406 -8.01335937 104.00632812 -8.79296875 104.87890625 C-29.54503027 127.05280559 -60.30546892 136.05139209 -89.73071671 137.22977829 C-98.48808993 137.4913712 -107.25303812 137.30647993 -116.01171875 137.19140625 C-118.2041619 137.16703063 -120.39661106 137.14319119 -122.58906555 137.11985779 C-128.29187 137.05775551 -133.99456451 136.9884897 -139.69726562 136.91760254 C-145.54356992 136.84624131 -151.38995066 136.78183357 -157.23632812 136.71679688 C-168.65763614 136.58874024 -180.07883993 136.45309663 -191.5 136.3125 C-191.49111755 137.59765503 -191.48223511 138.88281006 -191.4730835 140.20690918 C-191.39192418 152.33047152 -191.33199912 164.45397859 -191.29275131 176.57775116 C-191.27189514 182.81041301 -191.24361282 189.04285519 -191.19824219 195.27539062 C-191.15471516 201.29246677 -191.13084807 207.30933188 -191.12049103 213.32655334 C-191.11311205 215.61983054 -191.09870263 217.91309645 -191.07707977 220.20628357 C-191.04795548 223.42358169 -191.04404788 226.6400127 -191.04589844 229.85742188 C-191.03151733 230.80113647 -191.01713623 231.74485107 -191.00231934 232.71716309 C-191.04663224 239.85787157 -192.74016448 245.10572756 -197.4296875 250.5546875 C-198.07164062 251.09351563 -198.71359375 251.63234375 -199.375 252.1875 C-200.01179687 252.74179687 -200.64859375 253.29609375 -201.3046875 253.8671875 C-207.86396635 258.18557393 -215.22078719 257.68485664 -222.7578125 257.68310547 C-224.86280519 257.68747469 -226.96569032 257.72383752 -229.0703125 257.76171875 C-237.85587552 257.83670435 -243.77331402 257.21933603 -250.70703125 251.48828125 C-251.23683594 250.87339844 -251.76664063 250.25851562 -252.3125 249.625 C-253.12654297 248.72201172 -253.12654297 248.72201172 -253.95703125 247.80078125 C-258.0755833 241.1589644 -258.93830668 234.33302609 -258.84057617 226.66186523 C-258.84101425 225.74371536 -258.84145233 224.82556549 -258.84190369 223.8795929 C-258.8398312 220.87653551 -258.81657343 217.87405233 -258.79296875 214.87109375 C-258.78736731 212.77645676 -258.7830998 210.68181581 -258.78010559 208.58717346 C-258.7687 203.09790018 -258.73926988 197.6088684 -258.70599365 192.11968994 C-258.67520011 186.50886297 -258.66158047 180.89799665 -258.64648438 175.28710938 C-258.61439592 164.29546733 -258.56325172 153.30400382 -258.5 142.3125 C-256.89475464 141.6306665 -256.89475464 141.6306665 -255.25708008 140.93505859 C-253.82361404 140.31895571 -252.39027098 139.70256665 -250.95703125 139.0859375 C-249.90424988 138.64012329 -249.90424988 138.64012329 -248.8302002 138.18530273 C-237.16234231 133.14392659 -226.99773298 125.70266987 -217.5 117.3125 C-216.81679688 116.71308594 -216.13359375 116.11367188 -215.4296875 115.49609375 C-202.96646486 103.81497617 -193.92587201 88.39439312 -187.88427734 72.56103516 C-187.4369223 71.39077789 -186.98956726 70.22052063 -186.52865601 69.01480103 C-186.01947128 67.67716202 -186.01947128 67.67716202 -185.5 66.3125 C-184.26131165 66.31694122 -183.02262329 66.32138245 -181.74639893 66.32595825 C-170.03609665 66.36661533 -158.32580882 66.39653754 -146.61545181 66.41612434 C-140.59598077 66.42653282 -134.576567 66.44063815 -128.55712891 66.46337891 C-122.74105013 66.48521228 -116.92502623 66.49709068 -111.10890961 66.50225449 C-108.89711392 66.50593147 -106.68532102 66.51311138 -104.47354889 66.52396011 C-78.43752016 67.02287615 -78.43752016 67.02287615 -56.5 54.3125 C-51.54664135 47.4906146 -48.37281127 40.73326068 -46.5 32.5625 C-44.74644772 25.17307664 -41.81610719 20.65693458 -36.5 15.3125 C-35.42685547 14.21808594 -35.42685547 14.21808594 -34.33203125 13.1015625 C-24.48158243 3.72184309 -13.42668269 -0.05387914 0 0 Z " fill="#BB2C32" transform="translate(1164.5,152.6875)"/>
<path d="M0 0 C12.7599961 9.76603054 21.13978047 22.01142587 24 38 C24.31356594 41.4007179 24.38122822 44.77349963 24.375 48.1875 C24.37338867 49.11006592 24.37177734 50.03263184 24.37011719 50.9831543 C24.17700305 61.80227941 21.03275932 70.47370558 16 80 C15.76806826 82.22468387 15.76806826 82.22468387 17.9375 84 C18.618125 84.66 19.29875 85.32 20 86 C21.60960241 89.21920482 21.46158126 92.50888539 21 96 C19.18831113 99.69305808 17.60513341 101.57365601 14.25 103.9375 C10.17334844 105.27025147 7.09067184 105.29580288 3 104 C1.31110128 102.6949419 -0.3603279 101.36639342 -2 100 C-5.53332771 100.46223134 -8.78557872 102.0956744 -12.0625 103.4375 C-28.23751211 109.67669085 -45.432412 109.88151576 -61.7109375 103.55859375 C-69.65746643 99.84389313 -75.90843836 95.28333302 -82 89 C-82.57234375 88.43667969 -83.1446875 87.87335938 -83.734375 87.29296875 C-94.16950149 76.23926518 -97.50957123 61.37286311 -97.34936523 46.64306641 C-96.88130367 31.59845706 -91.17715419 17.20789198 -80.64453125 6.31640625 C-58.07432038 -13.45336487 -25.33830147 -16.4253311 0 0 Z M-63 26 C-69.24250054 36.2293076 -72.02738164 46.05635069 -69.31640625 58.015625 C-67.24243568 64.17729691 -64.35861548 69.18648048 -60 74 C-59.51015625 74.55558594 -59.0203125 75.11117187 -58.515625 75.68359375 C-52.6707455 81.48507068 -43.87244451 84.06311879 -35.75 84.4375 C-31.21572655 83.90850143 -27.24013128 82.64893994 -23 81 C-24.0828125 79.9171875 -24.0828125 79.9171875 -25.1875 78.8125 C-26.115625 77.884375 -27.04375 76.95625 -28 76 C-28.9075 75.113125 -29.815 74.22625 -30.75 73.3125 C-34.44296489 69.51695275 -34.38904928 66.61802545 -34.359375 61.484375 C-34 59 -34 59 -31.625 55.9375 C-27.46471784 52.86681555 -24.11401396 52.32004683 -19 53 C-15.31058546 54.91849556 -12.63190998 57.31240094 -9.75 60.25 C-8.8425 61.1575 -7.935 62.065 -7 63 C-6.34 63 -5.68 63 -5 63 C-1.37002685 53.47132049 -1.8162537 42.81295885 -5.7421875 33.46484375 C-10.15248804 24.82229829 -17.13900021 17.57021591 -26.54296875 14.47265625 C-40.85492893 11.71948108 -53.4799638 14.73583503 -63 26 Z " fill="#818285" transform="translate(795,495)"/>
<path d="M0 0 C1.26585937 -0.03351563 2.53171875 -0.06703125 3.8359375 -0.1015625 C12.36408372 1.53373152 16.86955268 9.20697123 21.6875 15.875 C23.00245725 17.66252516 24.31889736 19.44896032 25.63671875 21.234375 C26.62937744 22.58305664 26.62937744 22.58305664 27.64208984 23.95898438 C30.69633836 28.0654106 33.84359662 32.09688155 37 36.125 C43.73952427 44.74849158 50.33013589 53.46321142 56.76611328 62.31665039 C57.84930344 63.80655235 57.84930344 63.80655235 58.95437622 65.32655334 C59.50568207 66.08504074 60.05698792 66.84352814 60.625 67.625 C60.62642502 66.8866391 60.62785004 66.1482782 60.62931824 65.38754272 C60.64718137 58.4136828 60.68889282 51.44032465 60.75709057 44.46678734 C60.79131585 40.881908 60.81646342 37.29745276 60.82055664 33.71240234 C60.82484948 30.24957797 60.85339078 26.78770951 60.89843178 23.32518387 C60.9176559 21.36779142 60.91205891 19.4102059 60.90605164 17.45272827 C61.06854997 7.51912734 61.06854997 7.51912734 64.04418945 3.83056641 C68.29439774 0.198329 71.38005534 0.23362897 76.8515625 0.26953125 C81.17936599 0.82422156 82.76806829 2.39215622 85.625 5.625 C86.52454986 8.32364957 86.75554473 9.89526389 86.77217102 12.66584778 C86.77932632 13.48588791 86.78648163 14.30592804 86.79385376 15.15081787 C86.79654266 16.04697815 86.79923157 16.94313843 86.80200195 17.86645508 C86.80857315 18.81310532 86.81514435 19.75975555 86.82191467 20.73509216 C86.84164476 23.87157265 86.85330906 27.00800528 86.86328125 30.14453125 C86.86735678 31.21548223 86.8714323 32.28643322 86.87563133 33.38983727 C86.89648986 39.05717145 86.91079309 44.72448143 86.92016602 50.3918457 C86.9312358 56.2463378 86.96564315 62.10045038 87.00533772 67.95480824 C87.03147558 72.45611785 87.0398553 76.9573366 87.04344749 81.45871544 C87.04831999 83.61687473 87.05995277 85.77502979 87.07848549 87.93311501 C87.10281838 90.95417046 87.1019225 93.97423799 87.0949707 96.99536133 C87.10778076 97.88544891 87.12059082 98.7755365 87.13378906 99.69259644 C87.08801433 105.1541958 86.28591374 108.30159448 82.625 112.625 C78.20397739 115.48566169 72.71268697 115.1396748 67.625 114.625 C59.43594294 111.577909 53.56594025 101.03545997 48.5625 94.25 C43.59393234 87.56571704 38.57134846 80.93324396 33.4375 74.375 C27.47004801 66.74664374 21.62634296 59.03235261 15.8449707 51.26220703 C14.44245343 49.38002156 13.03367533 47.50257956 11.625 45.625 C11.61913376 46.37810959 11.61326752 47.13121918 11.60722351 47.90715027 C11.54925608 55.01370303 11.47715643 62.11994024 11.38928509 69.22617626 C11.34460782 72.87935862 11.30534623 76.53243015 11.27856445 80.18579102 C11.25250455 83.71326179 11.21208408 87.24030546 11.16181374 90.76751137 C11.13707424 92.76427679 11.12710702 94.76120755 11.11735535 96.75810242 C11.09756119 97.97899063 11.07776703 99.19987885 11.05737305 100.45776367 C11.04626999 101.53031906 11.03516693 102.60287445 11.02372742 103.70793152 C10.56705992 107.04888656 9.61496697 108.92332206 7.625 111.625 C3.11561013 114.66621642 -1.06765723 115.55722787 -6.375 114.625 C-10.93586832 112.47364702 -12.90309157 110.32606906 -14.77577591 105.66603279 C-15.86984721 101.93948802 -15.79123942 98.24624386 -15.76318359 94.38842773 C-15.77106903 93.040728 -15.77106903 93.040728 -15.77911377 91.665802 C-15.79225478 88.71321937 -15.78359733 85.76118131 -15.7734375 82.80859375 C-15.77545975 80.74788815 -15.77837245 78.68718326 -15.78213501 76.6264801 C-15.78655022 72.31512617 -15.78015242 68.00395911 -15.76611328 63.69262695 C-15.74901123 58.17232886 -15.75887428 52.65246805 -15.77683067 47.13218594 C-15.78768096 42.8796307 -15.78421661 38.62717882 -15.7764473 34.37462044 C-15.7744493 32.33929454 -15.77689048 30.30395919 -15.78388596 28.26864433 C-15.79152202 25.42290316 -15.77986635 22.57786656 -15.76318359 19.73217773 C-15.76925629 18.89512802 -15.77532898 18.05807831 -15.78158569 17.19566345 C-15.71522219 11.07157575 -14.49655041 6.85076692 -10.1484375 2.2890625 C-6.59557525 0.15734515 -4.12760473 0.02511727 0 0 Z " fill="#818285" transform="translate(1212.375,486.375)"/>
<path d="M0 0 C1.04495636 -0.00524185 2.08991272 -0.0104837 3.16653442 -0.0158844 C5.38054519 -0.02230352 7.59459006 -0.02096904 9.80859375 -0.01245117 C13.14908121 -0.00402289 16.48780997 -0.03257234 19.828125 -0.06445312 C39.93509469 -0.13109194 56.84502605 2.58256879 72.03125 16.94921875 C83.0194383 28.87496577 87.90087343 43.99537642 87.5625 60.01171875 C86.42331923 76.1072406 80.13011986 89.4020274 68.3203125 100.43359375 C52.79780664 113.67566469 34.47371752 114.80738163 15.02124023 114.80419922 C11.99732622 114.80860904 8.97483224 114.84512382 5.95117188 114.8828125 C4.01562994 114.88867538 2.08008115 114.89264831 0.14453125 114.89453125 C-0.75243973 114.90890228 -1.64941071 114.92327332 -2.57356262 114.93807983 C-8.06839408 114.89806455 -11.4509441 114.28884696 -15.6796875 110.43359375 C-18.93693223 105.31520514 -19.10996213 101.10118889 -19.06787109 95.23461914 C-19.07312805 94.3281514 -19.07838501 93.42168365 -19.08380127 92.48774719 C-19.09696585 89.50207096 -19.0882749 86.51693133 -19.078125 83.53125 C-19.08014693 81.44909056 -19.08305935 79.3669318 -19.08682251 77.28477478 C-19.09124122 72.92456305 -19.08482994 68.56453594 -19.07080078 64.2043457 C-19.05371994 58.62470562 -19.06354614 53.04549883 -19.08151817 47.46587467 C-19.09237725 43.16695411 -19.08889971 38.86813565 -19.0811348 34.56921196 C-19.07913812 32.51238389 -19.08157332 30.45554645 -19.08857346 28.39872932 C-19.09622161 25.51955875 -19.08453601 22.64108201 -19.06787109 19.76196289 C-19.07394379 18.91758667 -19.08001648 18.07321045 -19.08627319 17.20324707 C-19.02937329 11.87690803 -18.17550811 8.16411852 -15.6796875 3.43359375 C-11.30544453 -0.70327491 -5.67485671 -0.01667679 0 0 Z M7.3203125 23.43359375 C7.3203125 45.54359375 7.3203125 67.65359375 7.3203125 90.43359375 C30.99748962 91.77695107 30.99748962 91.77695107 50.5 82.2578125 C57.32875984 75.41439867 60.23278226 66.9219438 60.5703125 57.43359375 C60.22069489 47.04789404 56.7272873 38.42818866 49.2578125 31.12109375 C36.51646011 20.77519821 24.34723919 23.43359375 7.3203125 23.43359375 Z " fill="#818285" transform="translate(18.6796875,486.56640625)"/>
<path d="M0 0 C1.64849442 -0.01913956 1.64849442 -0.01913956 3.33029175 -0.03866577 C4.5208316 -0.04089142 5.71137146 -0.04311707 6.93798828 -0.04541016 C8.16808624 -0.05206696 9.3981842 -0.05872375 10.66555786 -0.06558228 C13.27653507 -0.07572211 15.88753827 -0.08039889 18.49853516 -0.08007812 C22.45783292 -0.0798372 26.41637372 -0.1206325 30.37548828 -0.15869141 C32.91715116 -0.1645663 35.45881931 -0.16853119 38.00048828 -0.17041016 C39.17078583 -0.18478119 40.34108337 -0.19915222 41.54684448 -0.21395874 C53.0947096 -0.15110524 64.06277661 2.15147121 72.63330078 10.29052734 C73.4628125 11.0775 73.4628125 11.0775 74.30908203 11.88037109 C81.49100938 19.45436396 83.99020924 29.50430113 83.85205078 39.72802734 C82.9686705 50.07619641 79.46067888 58.50802381 72.63330078 66.29052734 C70.60082948 67.79908441 68.51394729 69.23663447 66.38330078 70.60302734 C65.30564453 71.30041016 64.22798828 71.99779297 63.11767578 72.71630859 C62.29783203 73.23580078 61.47798828 73.75529297 60.63330078 74.29052734 C61.0824585 74.91507813 61.53161621 75.53962891 61.99438477 76.18310547 C64.03605018 79.04106685 66.05343433 81.91536864 68.07080078 84.79052734 C68.77785156 85.77279297 69.48490234 86.75505859 70.21337891 87.76708984 C74.10651223 93.35531949 76.73385288 97.38337147 76.63330078 104.29052734 C75.25735559 107.93678211 73.71425744 110.85143665 70.63330078 113.29052734 C66.96136754 114.51450509 63.43627764 115.01648965 59.63330078 114.29052734 C54.33293862 111.35866263 51.99176454 108.25626803 49.12158203 103.15380859 C48.28587589 101.75403133 47.44546455 100.35705451 46.60083008 98.96264648 C46.16765472 98.24658234 45.73447937 97.53051819 45.28817749 96.79275513 C38.40023841 84.34853935 38.40023841 84.34853935 27.03173828 77.02490234 C22.3663359 76.5632911 18.15886701 77.13715446 13.63330078 78.29052734 C13.64901123 79.11254639 13.66472168 79.93456543 13.6809082 80.78149414 C13.74335151 84.51360162 13.78232214 88.24559907 13.82080078 91.97802734 C13.8459375 93.27160156 13.87107422 94.56517578 13.89697266 95.89794922 C13.90664063 97.14511719 13.91630859 98.39228516 13.92626953 99.67724609 C13.94197998 100.82410889 13.95769043 101.97097168 13.97387695 103.15258789 C13.59292248 106.66255767 12.73799088 108.48375474 10.63330078 111.29052734 C5.84572132 114.51936 2.2252481 114.82309376 -3.36669922 114.29052734 C-6.57494169 112.79334752 -9.09602036 111.01534198 -11.36669922 108.29052734 C-12.26274821 105.60238037 -12.4971498 104.0450627 -12.51387024 101.28764343 C-12.52102554 100.47601746 -12.52818085 99.66439148 -12.53555298 98.82817078 C-12.53824188 97.94136124 -12.54093079 97.0545517 -12.54370117 96.14086914 C-12.55027237 95.20397247 -12.55684357 94.26707581 -12.56361389 93.30178833 C-12.58334317 90.19777345 -12.59500811 87.09380693 -12.60498047 83.98974609 C-12.609056 82.92982767 -12.61313152 81.86990925 -12.61733055 80.77787209 C-12.63818876 75.16889262 -12.65249211 69.5599376 -12.66186523 63.95092773 C-12.67293481 58.156968 -12.70734201 52.36339176 -12.74703693 46.56956768 C-12.77317589 42.11458113 -12.78155462 37.65968639 -12.78514671 33.2046299 C-12.79001895 31.06879903 -12.80165097 28.93297243 -12.82018471 26.79721642 C-12.84451993 23.80729083 -12.84362132 20.81836335 -12.83666992 17.82836914 C-12.84947998 16.94763229 -12.86229004 16.06689545 -12.87548828 15.1594696 C-12.82946562 9.72405629 -12.02570007 6.57813075 -8.36669922 2.29052734 C-5.02274351 0.06122354 -3.90761359 0.03081541 0 0 Z M13.63330078 23.29052734 C13.63330078 33.85052734 13.63330078 44.41052734 13.63330078 55.29052734 C17.88205078 55.35240234 22.13080078 55.41427734 26.50830078 55.47802734 C28.48612549 55.51899536 28.48612549 55.51899536 30.50390625 55.56079102 C42.12493683 55.7437378 42.12493683 55.7437378 52.31274414 50.83789062 C56.55090969 45.90471081 56.98493505 42.36259209 56.91064453 36.05615234 C56.51928124 32.15354372 55.31950275 30.11810836 52.63330078 27.29052734 C46.96302298 23.86473451 42.44705725 23.16415122 35.89892578 23.19287109 C34.73135742 23.19536865 33.56378906 23.19786621 32.36083984 23.20043945 C30.88325195 23.20954346 29.40566406 23.21864746 27.88330078 23.22802734 C20.82955078 23.25896484 20.82955078 23.25896484 13.63330078 23.29052734 Z " fill="#818285" transform="translate(359.36669921875,486.70947265625)"/>
<path d="M0 0 C1.10875488 -0.00960754 2.21750977 -0.01921509 3.35986328 -0.02911377 C4.56497559 -0.03336365 5.77008789 -0.03761353 7.01171875 -0.04199219 C8.25034668 -0.04769226 9.48897461 -0.05339233 10.76513672 -0.05926514 C13.39473135 -0.06872976 16.02421151 -0.07561801 18.65380859 -0.07910156 C21.33656521 -0.08347259 24.01899775 -0.09730697 26.70166016 -0.12011719 C30.57594511 -0.1507326 34.44982594 -0.16116895 38.32421875 -0.16699219 C40.10759644 -0.18551239 40.10759644 -0.18551239 41.92700195 -0.20440674 C53.88958182 -0.17274734 64.42814158 2.65461097 73.51953125 10.79003906 C82.38325901 20.38869903 83.27175544 31.66749586 82.83105469 44.11865234 C82.19727473 53.93754697 77.34778126 61.03676347 70.19921875 67.47363281 C67.2481403 69.88576152 64.19998057 71.62421299 60.69921875 73.16113281 C62.24413055 77.77841158 64.76061162 81.24307218 67.63671875 85.09863281 C76.5774474 97.11070348 76.5774474 97.11070348 75.69921875 105.16113281 C74.17929771 108.34572928 72.41625916 110.89693247 69.69921875 113.16113281 C65.35938925 114.60774264 61.53022732 114.84776102 57.19921875 113.22363281 C48.65547044 106.17504046 43.04059952 95.30549612 37.03027344 86.12475586 C36.08190633 84.72568825 35.07522266 83.365419 34.03222656 82.03540039 C32.69921875 80.16113281 32.69921875 80.16113281 32.69921875 78.16113281 C26.42921875 78.16113281 20.15921875 78.16113281 13.69921875 78.16113281 C13.73402344 79.96839844 13.76882813 81.77566406 13.8046875 83.63769531 C13.83283084 86.0204985 13.86013042 88.40331176 13.88671875 90.78613281 C13.91185547 91.9759375 13.93699219 93.16574219 13.96289062 94.39160156 C14.0557652 105.474634 14.0557652 105.474634 10.69921875 110.16113281 C6.90662355 113.51272857 3.8606626 114.82767874 -1.2734375 114.55175781 C-4.93056846 113.8471083 -7.272344 112.34160763 -10.30078125 110.16113281 C-12.05262651 107.36844182 -12.55376274 105.23367019 -12.57493591 101.96206665 C-12.58491104 101.1322377 -12.59488617 100.30240875 -12.60516357 99.44743347 C-12.60582825 98.54551773 -12.60649292 97.64360199 -12.60717773 96.71435547 C-12.61550125 95.75780563 -12.62382477 94.8012558 -12.63240051 93.8157196 C-12.65650489 90.65217016 -12.66527298 87.48882686 -12.671875 84.32519531 C-12.68084058 82.12568093 -12.68996241 79.92616717 -12.69923401 77.72665405 C-12.71572747 73.11495481 -12.72342486 68.5033282 -12.72631836 63.89160156 C-12.73170422 57.98433028 -12.76939177 52.07774213 -12.81506252 46.17066383 C-12.84481396 41.62730418 -12.8520415 37.08410946 -12.85304451 32.54066086 C-12.85725014 30.36295821 -12.8696981 28.18525523 -12.89056206 26.00764847 C-12.91743744 22.96015505 -12.91266206 19.91425089 -12.90014648 16.86669922 C-12.91498077 15.96883194 -12.92981506 15.07096466 -12.94509888 14.14588928 C-12.89482939 9.84436154 -12.6438573 7.03101948 -9.88832092 3.61703491 C-6.33447934 0.24399021 -4.77675814 0.03334956 0 0 Z M13.69921875 23.16113281 C13.69921875 33.72113281 13.69921875 44.28113281 13.69921875 55.16113281 C19.88671875 55.22300781 19.88671875 55.22300781 26.19921875 55.28613281 C27.48376953 55.30434082 28.76832031 55.32254883 30.09179688 55.34130859 C38.94994029 55.38402833 46.60860698 55.09745895 53.69921875 49.16113281 C56.79740354 44.61712846 57.48028655 40.51091224 56.69921875 35.16113281 C54.98269999 30.46329201 52.88271879 27.88527238 48.69921875 25.16113281 C44.24738188 23.37515219 40.55069617 22.92350912 35.76953125 22.96582031 C34.02567139 22.97331299 34.02567139 22.97331299 32.24658203 22.98095703 C30.05751221 23.00826904 30.05751221 23.00826904 27.82421875 23.03613281 C20.83234375 23.09800781 20.83234375 23.09800781 13.69921875 23.16113281 Z " fill="#818285" transform="translate(959.30078125,486.8388671875)"/>
<path d="M0 0 C21.28880643 -0.02340682 42.57761072 -0.04101732 63.86642742 -0.05181217 C73.75218322 -0.05695863 83.63793099 -0.06396975 93.52368164 -0.07543945 C102.14459181 -0.08543685 110.76549616 -0.09186543 119.38641196 -0.09408849 C123.94700929 -0.09538704 128.50759001 -0.09841835 133.06818199 -0.10573006 C137.36991477 -0.11257019 141.67162426 -0.11460086 145.97336197 -0.11310768 C147.54337122 -0.11338044 149.11338134 -0.11533777 150.68338585 -0.11920547 C159.83250601 -0.14061887 168.88639598 0.1337294 178 1 C174.85288949 4.25772803 171.79775175 6.46251585 167.875 8.75 C161.81931849 12.38103513 156.34599304 16.39052922 151 21 C150.04351563 21.81082031 149.08703125 22.62164062 148.1015625 23.45703125 C133.25917135 36.3367525 122.73676425 52.52647151 114 70 C95.85 70 77.7 70 59 70 C55 62 55 62 53.140625 58.140625 C46.51994609 44.43642864 38.6836963 32.83438313 28 22 C27.22011719 21.20722656 26.44023438 20.41445312 25.63671875 19.59765625 C18.20416411 12.48988551 9.20257421 6.60128711 0 2 C0 1.34 0 0.68 0 0 Z " fill="#BB2C32" transform="translate(920,77)"/>
<path d="M0 0 C2.13180516 1.7540824 3.74551344 3.47149563 4.984375 5.94921875 C5.08911967 7.8617063 5.13039477 9.77779716 5.14208984 11.69311523 C5.15235199 12.89874619 5.16261414 14.10437714 5.17318726 15.34654236 C5.18048859 16.65788651 5.18778992 17.96923065 5.1953125 19.3203125 C5.20828278 20.68116563 5.2220996 22.04201094 5.23672485 23.40284729 C5.29820877 29.181822 5.35209961 34.96078126 5.38574219 40.73999023 C5.40687988 44.27624395 5.44234488 47.81212389 5.48649979 51.3481617 C5.50728532 53.33248492 5.51267784 55.31695054 5.51766968 57.30137634 C5.65033818 67.18356672 6.13833374 77.18026693 13.3984375 84.58203125 C18.84626585 89.278435 24.97802025 90.11061175 31.984375 89.94921875 C37.73736834 88.96322414 42.95551384 87.33356766 46.984375 82.94921875 C50.65609043 76.89213717 52.1040008 71.80364041 52.1262207 64.71533203 C52.13325516 63.45367218 52.14028961 62.19201233 52.14753723 60.89212036 C52.14935312 60.22058048 52.15116901 59.5490406 52.15303993 58.85715103 C52.16023519 56.74637318 52.17592387 54.6358238 52.19438171 52.52511597 C52.24671044 46.52540194 52.29481653 40.52581631 52.31030273 34.52587891 C52.3204076 30.85110784 52.34979063 27.17691767 52.39162254 23.50237656 C52.40389826 22.10625485 52.40906006 20.71005099 52.40682411 19.31387711 C52.40446045 17.35648691 52.42889034 15.39912063 52.4543457 13.44189453 C52.46314507 11.77454758 52.46314507 11.77454758 52.47212219 10.07351685 C53.10930055 6.1872812 54.55430695 4.01640321 56.984375 0.94921875 C61.64978318 -2.16105337 66.52132905 -1.6561458 71.984375 -1.05078125 C75.70683236 1.03379487 77.42083568 3.04362749 78.984375 6.94921875 C79.25180054 9.82818604 79.25180054 9.82818604 79.27490234 13.20800781 C79.28766205 14.47743225 79.30042175 15.74685669 79.31356812 17.05474854 C79.31662915 18.44144538 79.3188551 19.82814429 79.3203125 21.21484375 C79.32674898 22.65053436 79.33347795 24.08622368 79.34048462 25.52191162 C79.35246325 28.53807603 79.3561657 31.55412598 79.35498047 34.5703125 C79.35477918 38.38931162 79.38187787 42.20755047 79.41652489 46.026371 C79.43906286 48.99858789 79.44280965 51.97063102 79.44176102 54.9429245 C79.44408466 56.34759853 79.45271979 57.75227984 79.46842575 59.15686798 C79.62834757 74.96067866 77.11869263 89.97932945 66.10546875 102 C55.94219983 111.58837694 42.66060847 114.7928786 28.984375 115.32421875 C15.76313387 114.79002719 1.95369795 111.88578195 -7.953125 102.57421875 C-17.49462554 91.92108708 -21.06386855 78.641499 -21.19262695 64.48242188 C-21.20546219 63.24423706 -21.21829742 62.00605225 -21.23152161 60.73034668 C-21.23890854 59.41038696 -21.24629547 58.09042725 -21.25390625 56.73046875 C-21.25798178 56.05057388 -21.2620573 55.37067902 -21.26625633 54.67018127 C-21.28701087 51.07651078 -21.30136228 47.48287735 -21.31079102 43.88916016 C-21.32188015 40.19383458 -21.35633833 36.49910698 -21.39596272 32.80399323 C-21.42217586 29.94540332 -21.43048656 27.08695573 -21.43407249 24.22825623 C-21.43892024 22.86636785 -21.45048231 21.50448505 -21.46911049 20.14271545 C-21.63896665 6.91215921 -21.63896665 6.91215921 -17.015625 0.94921875 C-12.53398177 -2.3525633 -4.88378111 -2.54600217 0 0 Z " fill="#818285" transform="translate(475.015625,488.05078125)"/>
<path d="M0 0 C3.41320355 1.61607476 5.44490376 3.88198873 7.13638306 7.28877258 C8.12517606 10.39297602 8.25156769 12.93537769 8.25537109 16.19213867 C8.26233002 17.42079147 8.26928894 18.64944427 8.27645874 19.91532898 C8.2757777 20.56708288 8.27509666 21.21883678 8.27439499 21.89034081 C8.27342342 23.94778565 8.28644774 26.00471695 8.30337524 28.06208801 C8.34944103 33.90927109 8.37421833 39.7564013 8.38085938 45.60375977 C8.38591124 49.18889686 8.41034736 52.77349882 8.44618607 56.35845375 C8.46058602 58.36889706 8.45338714 60.37945837 8.44564819 62.38993835 C8.54156205 71.38898151 9.46348931 79.04247613 15.625 85.9375 C23.38663349 90.68072047 31.08528524 92.1486064 40 90 C46.45777437 87.44105199 50.00238099 83.14962182 53 77 C54.08845984 73.73462049 54.13764056 71.31677571 54.15771484 67.87963867 C54.16797699 66.61790329 54.17823914 65.35616791 54.18881226 64.05619812 C54.19396914 63.04514291 54.19396914 63.04514291 54.19923019 62.01366234 C54.21104476 59.89876913 54.23050474 57.78407779 54.25234985 55.66926575 C54.31387417 49.65677655 54.36795334 43.64430818 54.40136719 37.6315918 C54.42236656 33.95156657 54.45771201 30.27191016 54.50212479 26.59209633 C54.51624406 25.19318305 54.52499801 23.79420453 54.52817917 22.39522362 C54.53311296 20.43291695 54.55792495 18.47069117 54.58349609 16.50854492 C54.59158295 15.39396408 54.5996698 14.27938324 54.60800171 13.13102722 C55.19039757 8.47922811 57.00499679 5.18156632 60 1.625 C64.58204969 -0.85694358 68.90745479 -0.88728094 74 0 C77.16993851 1.66806473 79.37482717 3.74965433 81 7 C81.10720402 9.12150742 81.1488947 11.24642641 81.16113281 13.37060547 C81.16858017 14.35162483 81.16858017 14.35162483 81.17617798 15.35246277 C81.19082049 17.52404835 81.19760963 19.69556057 81.203125 21.8671875 C81.20888048 23.38257854 81.21463817 24.89796957 81.22039795 26.4133606 C81.23091778 29.5994704 81.23675212 32.78555495 81.24023438 35.97167969 C81.24568163 40.02413581 81.26962344 44.07624953 81.29820633 48.12859917 C81.31698934 51.26533928 81.32204684 54.4020001 81.32357025 57.53879166 C81.32656878 59.03049693 81.33450077 60.52220177 81.34775543 62.01385117 C81.47176647 77.06012448 79.49917564 91.3097763 68.9375 102.75 C59.83373161 111.33702695 48.27851722 115.14619582 36 116 C35.26265625 116.05414062 34.5253125 116.10828125 33.765625 116.1640625 C20.12932848 116.66741573 6.62098273 113.39899791 -4.1875 104.9375 C-13.11291988 96.59024497 -17.34434104 85.26000703 -18.29646301 73.26515198 C-18.42691675 69.08287723 -18.47113215 64.91040613 -18.46875 60.7265625 C-18.47586945 59.18866709 -18.48357098 57.65077428 -18.49182129 56.11288452 C-18.50516538 52.9142107 -18.50687752 49.71578346 -18.50097656 46.51708984 C-18.49504581 42.42814041 -18.52585593 38.34036417 -18.56609344 34.25164223 C-18.59197285 31.08594439 -18.59484854 27.9205307 -18.59120178 24.75474167 C-18.59288835 23.24690136 -18.60248622 21.73904728 -18.62034607 20.2313118 C-18.7596715 7.03460164 -18.7596715 7.03460164 -15.58789062 3.09521484 C-10.73524406 -0.83359769 -6.08939395 -0.76439501 0 0 Z " fill="#818285" transform="translate(849,487)"/>
<path d="M0 0 C1.10698242 -0.03577148 1.10698242 -0.03577148 2.23632812 -0.07226562 C2.96142578 -0.07033203 3.68652344 -0.06839844 4.43359375 -0.06640625 C5.40703735 -0.0674939 5.40703735 -0.0674939 6.40014648 -0.06860352 C10.7701376 1.20682011 13.5729676 3.87095663 15.81996155 7.71205139 C17.08894611 10.37768956 18.23954345 13.07071457 19.36328125 15.80078125 C20.01472107 17.32737617 20.01472107 17.32737617 20.67932129 18.8848114 C22.09336489 22.20855264 23.48424675 25.54145469 24.875 28.875 C25.84640273 31.17055621 26.81931599 33.46547377 27.79370117 35.75976562 C29.77080958 40.42171724 31.73886247 45.0873276 33.69921875 49.75634766 C36.36025575 56.09076782 39.04932885 62.41286108 41.75 68.73046875 C44.67936947 75.58852275 47.60786891 82.44690516 50.51953125 89.3125 C50.81637817 90.01009933 51.1132251 90.70769867 51.41906738 91.42643738 C53.73826815 96.90349547 55.38126486 101.54685266 54.5625 107.5625 C52.84126957 111.00496086 51.56455044 112.96668623 48.25 114.9375 C43.71459745 115.99224478 40.07798886 116.2858015 35.8125 114.25 C32.42242465 111.70744348 30.35472979 109.60141672 28.73828125 105.65625 C28.43212891 104.91246094 28.12597656 104.16867187 27.81054688 103.40234375 C27.50181641 102.63019531 27.19308594 101.85804688 26.875 101.0625 C26.55466797 100.29035156 26.23433594 99.51820313 25.90429688 98.72265625 C23.5625 92.96053771 23.5625 92.96053771 23.5625 89.5625 C8.0525 89.8925 -7.4575 90.2225 -23.4375 90.5625 C-26.4075 97.4925 -29.3775 104.4225 -32.4375 111.5625 C-37.01331127 114.99435846 -39.83333631 115.71817121 -45.4375 115.5625 C-49.01890041 114.36869986 -50.82880336 113.25235619 -53.3125 110.4375 C-56.04785271 103.44715417 -54.48091355 97.88093729 -51.640625 91.2421875 C-50.35019494 88.29465147 -49.02007917 85.36616357 -47.6875 82.4375 C-46.60329592 80.00563599 -45.52518778 77.57112378 -44.44721985 75.13648987 C-43.67884012 73.4021188 -42.9085201 71.66860622 -42.13639832 69.93589783 C-39.04970026 62.99715843 -36.05707792 56.02122405 -33.09765625 49.02734375 C-32.65213409 47.97472351 -32.20661194 46.92210327 -31.74758911 45.83758545 C-29.97988289 41.65735692 -28.21430146 37.47623788 -26.4510498 33.29412842 C-25.21635761 30.36802757 -23.9776283 27.44366296 -22.73828125 24.51953125 C-22.37734879 23.66044662 -22.01641632 22.801362 -21.64454651 21.91624451 C-12.26530236 -0.18115564 -12.26530236 -0.18115564 0 0 Z M-0.4375 33.5625 C-4.21768445 40.7635168 -7.34685569 48.09533944 -10.25 55.6875 C-11.631875 59.27625 -13.01375 62.865 -14.4375 66.5625 C-5.1975 66.5625 4.0425 66.5625 13.5625 66.5625 C11.00859269 58.90028008 11.00859269 58.90028008 8.08203125 51.43359375 C7.41977539 49.85288086 7.41977539 49.85288086 6.74414062 48.24023438 C6.29232422 47.17095703 5.84050781 46.10167969 5.375 45 C4.91158203 43.89591797 4.44816406 42.79183594 3.97070312 41.65429688 C2.83756147 38.95578426 1.7014372 36.25857042 0.5625 33.5625 C0.2325 33.5625 -0.0975 33.5625 -0.4375 33.5625 Z " fill="#818285" transform="translate(284.4375,485.4375)"/>
<path d="M0 0 C0.73347656 -0.01933594 1.46695313 -0.03867187 2.22265625 -0.05859375 C6.63540644 -0.01912371 9.81560194 0.63595615 13.13183594 3.83496094 C16.17840639 7.82094497 17.94941516 12.4639526 19.875 17.0625 C20.37902344 18.23047119 20.88304687 19.39844238 21.40234375 20.60180664 C22.81635579 23.88361826 24.20748477 27.17467415 25.59265137 30.46875 C26.53176629 32.70049035 27.47487584 34.93050755 28.41894531 37.16015625 C31.13797024 43.58442132 33.8541957 50.00973511 36.54052734 56.44775391 C39.68700632 63.98436036 42.8619357 71.5013665 46.1875 78.9609375 C46.75543204 80.24477411 47.32314671 81.5287069 47.890625 82.81274414 C48.92898063 85.15140707 49.98015941 87.48443848 51.046875 89.81030273 C53.82569832 96.09826863 55.22818223 100.73789332 54.5 107.625 C52.78416355 111.12022239 51.53312564 113.01070908 48.1875 115 C43.79659254 116.02114127 40.13195221 116.24669608 35.875 114.625 C29.04794335 108.87589967 26.24206976 99.86287766 23.5 91.625 C23.5 90.965 23.5 90.305 23.5 89.625 C7.99 89.955 -7.52 90.285 -23.5 90.625 C-26.14 96.895 -28.78 103.165 -31.5 109.625 C-37.41666667 115.54166667 -37.41666667 115.54166667 -41.75 115.875 C-45.86656251 115.6005625 -48.06903963 114.88631479 -51.5 112.625 C-54.43256927 109.20366919 -54.83551934 106.33852615 -54.76126099 101.8866272 C-54.27784091 97.70186161 -52.56271817 94.05483983 -50.87109375 90.23046875 C-50.48979309 89.33725922 -50.10849243 88.44404968 -49.71563721 87.52377319 C-48.4697231 84.61401337 -47.20382892 81.71342591 -45.9375 78.8125 C-45.06938442 76.79541452 -44.20261606 74.77774872 -43.3371582 72.75952148 C-41.58203427 68.67259092 -39.81905578 64.58919989 -38.04882812 60.50878906 C-35.71843539 55.13556172 -33.40885422 49.7537062 -31.109375 44.3671875 C-27.21612623 35.25092636 -27.21612623 35.25092636 -25.39819336 31.01831055 C-24.97268944 30.02723045 -24.97268944 30.02723045 -24.53858948 29.01612854 C-23.98703917 27.73496649 -23.43342009 26.45469271 -22.87754822 25.17539978 C-21.51997384 22.04416336 -20.20665072 18.9046042 -18.96337891 15.72607422 C-14.89770674 5.45854316 -11.76381233 -0.31011808 0 0 Z M-0.5 32.625 C-2.35824533 36.98206827 -4.20945639 41.34203168 -6.05419922 45.70483398 C-6.68280449 47.18872537 -7.31332755 48.67180585 -7.94580078 50.15405273 C-8.85433737 52.28419308 -9.75594736 54.4171501 -10.65625 56.55078125 C-10.94060913 57.21338455 -11.22496826 57.87598785 -11.51794434 58.55867004 C-12.71997859 61.42401292 -13.5 63.48293701 -13.5 66.625 C-4.59 66.625 4.32 66.625 13.5 66.625 C11.7571399 61.3964197 10.06795432 56.35849708 8.01953125 51.27734375 C7.57802734 50.17841797 7.13652344 49.07949219 6.68164062 47.94726562 C6.22982422 46.83029297 5.77800781 45.71332031 5.3125 44.5625 C4.84908203 43.41072266 4.38566406 42.25894531 3.90820312 41.07226562 C2.7745028 38.25554626 1.63838499 35.43982853 0.5 32.625 C0.17 32.625 -0.16 32.625 -0.5 32.625 Z " fill="#818285" transform="translate(161.5,485.375)"/>
<path d="M0 0 C1.10698242 -0.03577148 1.10698242 -0.03577148 2.23632812 -0.07226562 C2.96142578 -0.07033203 3.68652344 -0.06839844 4.43359375 -0.06640625 C5.40703735 -0.0674939 5.40703735 -0.0674939 6.40014648 -0.06860352 C10.7701376 1.20682011 13.5729676 3.87095663 15.81996155 7.71205139 C17.08894611 10.37768956 18.23954345 13.07071457 19.36328125 15.80078125 C20.01472107 17.32737617 20.01472107 17.32737617 20.67932129 18.8848114 C22.09336489 22.20855264 23.48424675 25.54145469 24.875 28.875 C25.84640273 31.17055621 26.81931599 33.46547377 27.79370117 35.75976562 C29.77080958 40.42171724 31.73886247 45.0873276 33.69921875 49.75634766 C36.36025575 56.09076782 39.04932885 62.41286108 41.75 68.73046875 C44.67936947 75.58852275 47.60786891 82.44690516 50.51953125 89.3125 C50.81637817 90.01009933 51.1132251 90.70769867 51.41906738 91.42643738 C54.14256509 97.85828896 56.13430122 103.63299696 53.4375 110.375 C50.15982112 114.1989587 46.95704782 115.41570549 42 115.9375 C36.95701508 115.38735619 33.89379805 113.26749958 30.5625 109.5625 C29.5793457 107.70898438 29.5793457 107.70898438 28.73828125 105.65625 C28.43212891 104.91246094 28.12597656 104.16867187 27.81054688 103.40234375 C27.50181641 102.63019531 27.19308594 101.85804688 26.875 101.0625 C26.55466797 100.29035156 26.23433594 99.51820313 25.90429688 98.72265625 C23.5625 92.96053771 23.5625 92.96053771 23.5625 89.5625 C8.0525 89.8925 -7.4575 90.2225 -23.4375 90.5625 C-26.4075 97.4925 -29.3775 104.4225 -32.4375 111.5625 C-36.97979945 114.96922459 -39.84054511 115.88286442 -45.4375 115.5625 C-48.87327264 114.408599 -51.66652559 112.83542105 -53.59472656 109.65185547 C-55.94148321 103.83391127 -54.75389464 98.84859191 -52.48954773 93.23338318 C-50.94440501 89.60916462 -49.31913087 86.02340168 -47.6875 82.4375 C-46.60329592 80.00563599 -45.52518778 77.57112378 -44.44721985 75.13648987 C-43.67884012 73.4021188 -42.9085201 71.66860622 -42.13639832 69.93589783 C-39.04970026 62.99715843 -36.05707792 56.02122405 -33.09765625 49.02734375 C-32.65213409 47.97472351 -32.20661194 46.92210327 -31.74758911 45.83758545 C-29.97988289 41.65735692 -28.21430146 37.47623788 -26.4510498 33.29412842 C-25.21635761 30.36802757 -23.9776283 27.44366296 -22.73828125 24.51953125 C-22.37734879 23.66044662 -22.01641632 22.801362 -21.64454651 21.91624451 C-12.26530236 -0.18115564 -12.26530236 -0.18115564 0 0 Z M-0.4375 33.5625 C-4.21768445 40.7635168 -7.34685569 48.09533944 -10.25 55.6875 C-11.631875 59.27625 -13.01375 62.865 -14.4375 66.5625 C-5.1975 66.5625 4.0425 66.5625 13.5625 66.5625 C11.00859269 58.90028008 11.00859269 58.90028008 8.08203125 51.43359375 C7.41977539 49.85288086 7.41977539 49.85288086 6.74414062 48.24023438 C6.29232422 47.17095703 5.84050781 46.10167969 5.375 45 C4.91158203 43.89591797 4.44816406 42.79183594 3.97070312 41.65429688 C2.83756147 38.95578426 1.7014372 36.25857042 0.5625 33.5625 C0.2325 33.5625 -0.0975 33.5625 -0.4375 33.5625 Z " fill="#818285" transform="translate(1128.4375,485.4375)"/>
<path d="M0 0 C3.90094293 1.32752596 6.29764877 2.91948133 9.20776367 5.81958008 C10.00176071 6.60412064 10.79575775 7.38866119 11.61381531 8.19697571 C12.45668594 9.04591904 13.29955658 9.89486237 14.16796875 10.76953125 C15.04399246 11.64268478 15.92001617 12.51583832 16.82258606 13.41545105 C19.14384985 15.73415341 21.45765607 18.06001071 23.76922607 20.3883667 C25.1862088 21.81120346 26.60889663 23.22805699 28.03393555 24.64282227 C30.77422471 27.3645783 33.50391885 30.09651879 36.23046875 32.83203125 C37.07941208 33.67490189 37.92835541 34.51777252 38.80302429 35.38618469 C39.58756485 36.18018173 40.37210541 36.97417877 41.18041992 37.79223633 C41.87149338 38.48569656 42.56256683 39.1791568 43.27458191 39.89363098 C45.13365546 42.16316493 46.05937626 44.23597156 47 47 C39.15308463 55.48654748 31.22516457 63.87802713 23.0625 72.0625 C22.37808838 72.75142334 21.69367676 73.44034668 20.98852539 74.15014648 C14.64209168 80.4781335 7.90971275 86.29948698 1 92 C-2.5890918 89.99413172 -5.40816551 87.84414675 -8.31542969 84.94335938 C-9.13267517 84.13241821 -9.94992065 83.32147705 -10.79193115 82.48596191 C-11.65981262 81.61403198 -12.52769409 80.74210205 -13.421875 79.84375 C-14.77276215 78.49573303 -14.77276215 78.49573303 -16.15093994 77.1204834 C-18.04958749 75.22319488 -19.9460922 73.3240224 -21.83935547 71.42138672 C-24.26594456 68.98337119 -26.70144653 66.55448848 -29.13972092 64.1281662 C-31.46779946 61.80904671 -33.78825088 59.48232677 -36.109375 57.15625 C-36.98535339 56.28432007 -37.86133179 55.41239014 -38.76385498 54.51403809 C-39.56849182 53.70309692 -40.37312866 52.89215576 -41.20214844 52.05664062 C-41.9132074 51.34399048 -42.62426636 50.63134033 -43.35687256 49.89709473 C-45 48 -45 48 -46 45 C-37.95080465 36.34258571 -29.8474436 27.74638465 -21.5 19.375 C-20.86707031 18.73755859 -20.23414062 18.10011719 -19.58203125 17.44335938 C-13.37392423 11.25477471 -6.75822902 5.57553894 0 0 Z " fill="#BB2C32" transform="translate(83,187)"/>
<path d="M0 0 C2.22298602 0.9879098 3.72296439 2.18344874 5.52742004 3.81767273 C6.22222473 4.44673523 6.91702942 5.07579773 7.63288879 5.72392273 C10.69342688 8.62737125 13.65485142 11.6232035 16.61726379 14.62626648 C18.65197955 16.63237463 20.73577441 18.51880789 22.90242004 20.38017273 C29.20980434 25.81153143 34.90533966 31.73237517 40.29304504 38.07157898 C41.91446229 39.97607193 41.91446229 39.97607193 44.33992004 42.00517273 C45.83992004 43.81767273 45.83992004 43.81767273 45.67202759 46.16223145 C44.67375204 49.34795199 43.38489049 50.7679562 41.02619934 53.11723328 C40.21833481 53.93125107 39.41047028 54.74526886 38.578125 55.58395386 C37.69900955 56.44869827 36.8198941 57.31344269 35.91413879 58.20439148 C34.56543449 59.55172112 34.56543449 59.55172112 33.18948364 60.92626953 C31.28657108 62.82314055 29.38036111 64.71574142 27.46711731 66.60209656 C25.01900252 69.01623236 22.58426039 71.44332526 20.15384197 73.87526226 C17.82951163 76.19891695 15.49672049 78.51402422 13.16413879 80.82939148 C12.29109604 81.70020859 11.41805328 82.5710257 10.51855469 83.4682312 C9.70123367 84.27279251 8.88391266 85.07735382 8.04182434 85.90629578 C7.3253624 86.61513412 6.60890045 87.32397247 5.87072754 88.05429077 C3.93163888 89.73803183 2.1841971 90.79821147 -0.16007996 91.81767273 C-2.83512975 89.49381662 -5.49884788 87.15733597 -8.16007996 84.81767273 C-8.88090759 84.18570984 -9.60173523 83.55374695 -10.34440613 82.90263367 C-16.93769128 77.05034824 -23.21156896 70.92045738 -29.43083191 64.67729187 C-31.11612688 62.98656603 -32.80679728 61.30134473 -34.49797058 59.61650085 C-35.58227627 58.53153542 -36.66627229 57.4462604 -37.74992371 56.36064148 C-38.49990883 55.6136927 -38.49990883 55.6136927 -39.26504517 54.85165405 C-44.65270998 49.42770242 -44.65270998 49.42770242 -46.16007996 46.81767273 C-45.77995262 42.95707245 -43.82266407 41.09020962 -41.1627655 38.4004364 C-39.89090645 37.10470955 -39.89090645 37.10470955 -38.59335327 35.7828064 C-37.67049026 34.85974197 -36.74762726 33.93667755 -35.79679871 32.98564148 C-34.84344399 32.02518574 -33.89038928 31.06443211 -32.93762207 30.10339355 C-30.94117202 28.09350687 -28.93889198 26.08964724 -26.93278503 24.08940125 C-24.3599639 21.52248903 -21.80589606 18.93776395 -19.25630474 16.34780407 C-17.29439039 14.36007824 -15.3211593 12.38389798 -13.3444767 10.41086769 C-11.93672915 9.00059867 -10.54011302 7.57924665 -9.14364624 6.1578064 C-8.28628372 5.3097493 -7.4289212 4.4616922 -6.545578 3.5879364 C-5.79358627 2.83389023 -5.04159454 2.07984406 -4.26681519 1.302948 C-2.16007996 -0.18232727 -2.16007996 -0.18232727 0 0 Z " fill="#BB2C32" transform="translate(383.1600799560547,187.1823272705078)"/>
<path d="M0 0 C4.05859778 1.36042727 6.49794747 3.1118093 9.53076172 6.11083984 C10.39450409 6.95867035 11.25824646 7.80650085 12.14816284 8.68002319 C13.06606598 9.59772491 13.98396912 10.51542664 14.9296875 11.4609375 C15.88871562 12.41286135 16.84804024 13.36448658 17.80764771 14.31582642 C19.81154825 16.30631009 21.80944531 18.30259962 23.80371094 20.30273438 C26.36274351 22.86768379 28.93961758 25.41385097 31.52168083 27.95558739 C33.50511283 29.91321327 35.47700469 31.88214992 37.44574356 33.85454178 C38.85158255 35.25786053 40.26850261 36.65004968 41.68551636 38.04208374 C42.53034576 38.89621857 43.37517517 39.75035339 44.24560547 40.63037109 C44.99663544 41.37934662 45.74766541 42.12832214 46.52145386 42.8999939 C48 45 48 45 47.9884491 46.99801636 C46.68581396 49.63634568 45.03097029 51.32790117 42.93920898 53.40136719 C41.64798378 54.6922525 41.64798378 54.6922525 40.33067322 56.00921631 C39.39526199 56.92914368 38.45985077 57.84907104 37.49609375 58.796875 C36.53279924 59.7545722 35.57016651 60.71293547 34.60816956 61.67193604 C32.07807517 64.19059231 29.53910072 66.70010838 26.99816895 69.20782471 C24.40546323 71.76980732 21.82126044 74.34033501 19.23632812 76.91015625 C14.1658401 81.94849841 9.0859212 86.97723334 4 92 C0.46760977 90.49315032 -1.7962166 88.44633388 -4.49316406 85.73388672 C-5.37377502 84.85312469 -6.25438599 83.97236267 -7.16168213 83.06491089 C-8.11310431 82.10327649 -9.06441603 81.1415328 -10.015625 80.1796875 C-10.99596129 79.19561893 -11.97674168 78.21199258 -12.95794678 77.22879028 C-15.53354467 74.64557286 -18.10307857 72.05640488 -20.67138672 69.46594238 C-23.29551067 66.8213238 -25.92533771 64.1823899 -28.5546875 61.54296875 C-33.7087167 56.36751928 -38.85635157 51.18576878 -44 46 C-39.46467563 40.55582167 -34.64576765 35.52755863 -29.609375 30.546875 C-28.82355042 29.76483704 -28.03772583 28.98279907 -27.22808838 28.17706299 C-24.7378137 25.69892482 -22.24431682 23.22406917 -19.75 20.75 C-16.4502626 17.47682239 -13.15382542 14.2003729 -9.859375 10.921875 C-9.10106384 10.17186218 -8.34275269 9.42184937 -7.5614624 8.64910889 C-6.86023254 7.95118225 -6.15900269 7.25325562 -5.43652344 6.53417969 C-4.51102692 5.61653839 -4.51102692 5.61653839 -3.5668335 4.68035889 C-1.80259299 2.87910256 -1.80259299 2.87910256 0 0 Z " fill="#BB2C32" transform="translate(231,336)"/>
<path d="M0 0 C6.63457453 3.43891651 11.91967546 9.99964135 17.0637207 15.28271484 C19.18457449 17.35424645 21.32636594 19.28002043 23.57543945 21.20458984 C27.87023259 24.92761785 31.72122976 28.97583637 35.5637207 33.15771484 C36.86153202 34.55909534 38.15969553 35.96014976 39.45825195 37.36083984 C40.0200415 37.97088867 40.58183105 38.5809375 41.16064453 39.20947266 C42.65953413 40.80982202 44.19135388 42.36697485 45.7512207 43.90771484 C44.25591747 47.39743488 42.25930408 49.64236879 39.5769043 52.30908203 C38.71616302 53.16967224 37.85542175 54.03026245 36.96859741 54.91693115 C36.03834747 55.83685852 35.10809753 56.75678589 34.1496582 57.70458984 C33.18800984 58.66250582 32.22680376 59.62086599 31.26602173 60.57965088 C28.74198789 63.0960661 26.21200479 65.60641592 23.6807251 68.11553955 C21.0964288 70.67933925 18.51781872 73.24884402 15.9387207 75.81787109 C10.88176373 80.85340941 5.81849814 85.88256045 0.7512207 90.90771484 C-2.66864172 89.42717734 -4.92855788 87.49630646 -7.57421875 84.88867188 C-8.83991447 83.64695724 -8.83991447 83.64695724 -10.13117981 82.38015747 C-11.03237045 81.48432953 -11.9335611 80.58850159 -12.86206055 79.66552734 C-13.79100632 78.74561005 -14.71995209 77.82569275 -15.67704773 76.87789917 C-17.63835742 74.93304791 -19.59525859 72.9838736 -21.54980469 71.03222656 C-24.05788475 68.52954987 -26.58175053 66.04345755 -29.10979939 63.56097603 C-31.51741252 61.19018796 -33.9072738 58.80177906 -36.29956055 56.41552734 C-37.21087234 55.52374786 -38.12218414 54.63196838 -39.06111145 53.71316528 C-39.8891478 52.87905121 -40.71718414 52.04493713 -41.5703125 51.18554688 C-42.67473442 50.08873093 -42.67473442 50.08873093 -43.8014679 48.96975708 C-45.2487793 46.90771484 -45.2487793 46.90771484 -45.13053894 44.82418823 C-43.5821814 41.45888789 -40.91675637 38.98148095 -38.3737793 36.34521484 C-37.74044678 35.68207275 -37.10711426 35.01893066 -36.45458984 34.33569336 C-34.06380394 31.84871536 -31.6561337 29.37865974 -29.2487793 26.90771484 C-28.15130664 25.77259268 -27.05415791 24.63715728 -25.95727539 23.50146484 C-22.95083105 20.39239328 -19.92831779 17.2996205 -16.89593506 14.21585083 C-15.67202048 12.96793353 -14.45216439 11.71602292 -13.23638916 10.46017456 C-11.5090476 8.67908316 -9.76607055 6.91483797 -8.01831055 5.15380859 C-7.49589279 4.60877686 -6.97347504 4.06374512 -6.43522644 3.50219727 C-2.79757342 -0.11480651 -2.79757342 -0.11480651 0 0 Z " fill="#BB2C32" transform="translate(233.248779296875,38.09228515625)"/>
<path d="M0 0 C21.45 0 42.9 0 65 0 C65 21.45 65 42.9 65 65 C43.55 65 22.1 65 0 65 C0 43.55 0 22.1 0 0 Z " fill="#BB2C32" transform="translate(95,306)"/>
<path d="M0 0 C21.45 0 42.9 0 65 0 C65 21.45 65 42.9 65 65 C43.55 65 22.1 65 0 65 C0 43.55 0 22.1 0 0 Z " fill="#BB2C32" transform="translate(95,94)"/>
<path d="M0 0 C21.12 0 42.24 0 64 0 C64.165 7.0125 64.33 14.025 64.5 21.25 C64.55220703 23.41723633 64.60441406 25.58447266 64.65820312 27.81738281 C64.69940023 29.61262605 64.74042601 31.40787324 64.78125 33.203125 C64.8028418 34.07243652 64.82443359 34.94174805 64.84667969 35.83740234 C65.06339016 45.56357494 65 55.26220136 65 65 C43.22 65 21.44 65 -1 65 C-1.020625 58.915625 -1.04125 52.83125 -1.0625 46.5625 C-1.071604 44.70181885 -1.08070801 42.8411377 -1.09008789 40.92407227 C-1.11199234 27.22672528 -0.54894988 13.72374707 0 0 Z " fill="#BB2C32" transform="translate(307,306)"/>
<path d="M0 0 C21.78 0 43.56 0 66 0 C66 22.98973881 66 22.98973881 65.78125 31.796875 C65.7615918 32.66135254 65.74193359 33.52583008 65.72167969 34.41650391 C65.65028356 37.52772758 65.57494494 40.63885979 65.5 43.75 C65.335 50.7625 65.17 57.775 65 65 C43.88 65 22.76 65 1 65 C-0.14969136 30.50925926 -0.14969136 30.50925926 -0.0625 15.625 C-0.041875 10.46875 -0.02125 5.3125 0 0 Z " fill="#BB2C32" transform="translate(306,94)"/>
<path d="M0 0 C3.1716763 1.66282058 5.37568466 3.75136933 7 7 C7.09305156 9.62431149 7.12579615 12.22184796 7.11352539 14.84619141 C7.11367142 15.65602982 7.11381744 16.46586823 7.1139679 17.30024719 C7.11326977 19.98404596 7.10548204 22.66777581 7.09765625 25.3515625 C7.09579171 27.20958417 7.09436798 29.06760633 7.09336853 30.92562866 C7.08954615 35.82142488 7.07971823 40.71719155 7.06866455 45.61297607 C7.05844444 50.60656331 7.05386962 55.60015532 7.04882812 60.59375 C7.03809573 70.39584634 7.02102264 80.19792071 7 90 C7.5902446 89.99333817 8.1804892 89.98667633 8.78862 89.97981262 C14.93674264 89.91339698 21.08476321 89.8681735 27.2331543 89.83520508 C29.52714172 89.82012692 31.82110037 89.7996613 34.11499023 89.77368164 C37.41397205 89.73725642 40.7125724 89.72026369 44.01171875 89.70703125 C45.03585373 89.69154739 46.05998871 89.67606354 47.11515808 89.66011047 C55.90660166 89.65803673 55.90660166 89.65803673 60 93 C60.58007812 93.46664062 61.16015625 93.93328125 61.7578125 94.4140625 C64.14877559 97.46667576 64.11927267 101.23628467 64 105 C62.5797027 108.26668379 60.73781644 110.7184863 58 113 C54.70533752 114.09822083 52.24169132 114.14022216 48.77197266 114.16113281 C47.48698883 114.17074036 46.202005 114.1803479 44.87808228 114.19024658 C43.47341082 114.19509448 42.06873731 114.19937333 40.6640625 114.203125 C39.22301227 114.20887878 37.78196206 114.21463649 36.34091187 114.22039795 C33.31971887 114.23089928 30.29855242 114.23674767 27.27734375 114.24023438 C23.41142932 114.24571837 19.54586721 114.26974766 15.68006325 114.29820633 C12.70316552 114.31685566 9.7263523 114.32203951 6.74940109 114.32357025 C5.32447762 114.32659197 3.89955547 114.33460432 2.47468948 114.34775543 C0.478803 114.3648625 -1.51722919 114.36108413 -3.51318359 114.35644531 C-4.64774994 114.36009094 -5.78231628 114.36373657 -6.95126343 114.36749268 C-11.52991878 113.81558461 -15.11940592 111.6007426 -18 108 C-18.83656062 105.2854098 -19.12806032 102.82958183 -19.14044189 99.9974823 C-19.14615204 99.21116928 -19.15186218 98.42485626 -19.15774536 97.61471558 C-19.15886322 96.76112457 -19.15998108 95.90753357 -19.16113281 95.02807617 C-19.16609772 94.12190048 -19.17106262 93.21572479 -19.17617798 92.28208923 C-19.19077702 89.285708 -19.19759783 86.2893797 -19.203125 83.29296875 C-19.20887828 81.20795185 -19.21463599 79.12293497 -19.22039795 77.03791809 C-19.23090149 72.66581984 -19.2367484 68.29373995 -19.24023438 63.92163086 C-19.24571792 58.32628239 -19.26974583 52.7311774 -19.29820633 47.13590527 C-19.31685295 42.82842811 -19.32203939 38.52100936 -19.32357025 34.21349525 C-19.32659269 32.15107199 -19.33460739 30.08864966 -19.34775543 28.0262661 C-19.36485816 25.13735938 -19.36292529 22.24904458 -19.35644531 19.36010742 C-19.3656601 18.51258911 -19.37487488 17.6650708 -19.3843689 16.79187012 C-19.34693022 11.44900605 -18.50455452 7.74445643 -16 3 C-11.71537418 -1.15073126 -5.60473983 -0.90266674 0 0 Z " fill="#818285" transform="translate(589,487)"/>
<path d="M0 0 C1.12148437 -0.02835937 2.24296875 -0.05671875 3.3984375 -0.0859375 C7.30682301 0.47240329 8.86572183 1.59622163 11.625 4.375 C16.46408827 12.27764569 14.46891554 26.29548303 13.0078125 35.08984375 C10.71397652 42.32659177 6.22580367 46.8431968 -0.35546875 50.46484375 C-5.05819332 52.5017524 -10.30544854 53.39490976 -15.375 52.375 C-17.12109375 51.0625 -17.12109375 51.0625 -18.375 49.375 C-18.625 46 -18.625 46 -17.375 42.375 C-15.20855665 40.77371578 -13.04462451 39.64564065 -10.6015625 38.515625 C-7.54505304 36.94983419 -5.81538011 35.60665132 -4.64453125 32.33203125 C-4.49371094 31.62433594 -4.34289063 30.91664063 -4.1875 30.1875 C-3.919375 28.929375 -3.65125 27.67125 -3.375 26.375 C-5.293125 26.436875 -5.293125 26.436875 -7.25 26.5 C-9.4296875 26.5703125 -9.4296875 26.5703125 -11.375 26.375 C-14.27321248 23.47678752 -13.74305159 20.50221488 -13.75 16.625 C-13.77449219 15.92117188 -13.79898437 15.21734375 -13.82421875 14.4921875 C-13.85290496 9.34779462 -12.7532617 6.44842747 -9.375 2.375 C-5.85460293 0.02806862 -4.17442991 0.04776236 0 0 Z " fill="#818285" transform="translate(1066.375,486.625)"/>
</svg>
